<?xml version="1.0" standalone="no"?>
<!DOCTYPE svg PUBLIC "-//W3C//DTD SVG 1.1//EN" "http://www.w3.org/Graphics/SVG/1.1/DTD/svg11.dtd" >
<svg xmlns="http://www.w3.org/2000/svg" xmlns:xlink="http://www.w3.org/1999/xlink" version="1.1">
<metadata>
Created by FontForge 20150102 at Thu Jan 22 07:47:46 2015
 By uniteet7
Copyright (c) The Font Bureau, Inc., 2003. All rights reserved.
</metadata>
<defs>
<font id="FontBureauInterstateRegularCondensed" horiz-adv-x="750" >
  <font-face 
    font-family="FontBureauInterstateRegularCondensed"
    font-weight="400"
    font-stretch="normal"
    units-per-em="1000"
    panose-1="2 0 5 6 3 0 0 2 0 4"
    ascent="800"
    descent="-200"
    x-height="525"
    cap-height="700"
    bbox="-72 -193 1160 910"
    underline-thickness="20"
    underline-position="-113"
    unicode-range="U+0020-FB02"
  />
<missing-glyph horiz-adv-x="500" 
 />
    <glyph glyph-name="fi" unicode="fi" horiz-adv-x="505" 
d="M454 666q0 -24 -17.5 -41.5t-41.5 -17.5q-25 0 -42.5 17.5t-17.5 41.5q0 25 17.5 42.5t42.5 17.5q24 0 41.5 -17.5t17.5 -42.5zM278 636q-18 6 -40 6q-34 0 -47.5 -13t-13.5 -43v-61h86v-90h-86v-435h-96v435h-53v90h53v74q0 62 32.5 94.5t85.5 32.5q48 0 79 -10v-80z
M443 0h-96v525h96v-525z" />
    <glyph glyph-name="fl" unicode="fl" horiz-adv-x="505" 
d="M443 0h-96v679l96 50v-729zM278 636q-18 6 -40 6q-34 0 -47.5 -13t-13.5 -43v-61h86v-90h-86v-435h-96v435h-53v90h53v74q0 62 32.5 94.5t85.5 32.5q48 0 79 -10v-80z" />
    <glyph glyph-name=".notdef" horiz-adv-x="500" 
 />
    <glyph glyph-name=".null" horiz-adv-x="0" 
 />
    <glyph glyph-name="nonmarkingreturn" horiz-adv-x="333" 
 />
    <glyph glyph-name="space" unicode=" " horiz-adv-x="220" 
 />
    <glyph glyph-name="space" unicode="&#xa0;" horiz-adv-x="220" 
 />
    <glyph glyph-name="exclam" unicode="!" horiz-adv-x="248" 
d="M173 352l-16 -150h-66l-16 150v348h98v-348zM192 57q0 -29 -20 -48.5t-48 -19.5t-48 19.5t-20 48.5t20 49t48 20t48 -20t20 -49z" />
    <glyph glyph-name="quotedbl" unicode="&#x22;" horiz-adv-x="442" 
d="M380 700l-25 -327h-67l-25 327h117zM179 700l-25 -327h-67l-25 327h117z" />
    <glyph glyph-name="numbersign" unicode="#" horiz-adv-x="600" 
d="M555 160h-95v-160h-93v160h-134v-160h-93v160h-95v90h95v200h-95v90h95v160h93v-160h134v160h93v-160h95v-90h-95v-200h95v-90zM367 250v200h-134v-200h134z" />
    <glyph glyph-name="dollar" unicode="$" horiz-adv-x="443" 
d="M403 186q0 -72 -36 -120.5t-103 -61.5v-84h-98v84q-84 17 -139 109l77 62q51 -81 114 -81q40 0 62 22.5t22 64.5q0 40 -23 67.5t-94 74.5q-48 32 -73.5 53.5t-46.5 62t-21 92.5q0 63 32.5 106t89.5 57v86h98v-83q73 -13 127 -91l-72 -64q-27 36 -48 50t-53 14
q-35 0 -54 -19.5t-19 -52.5q0 -38 20.5 -62.5t81.5 -63.5q40 -26 62.5 -43t47 -44t35.5 -60t11 -75z" />
    <glyph glyph-name="percent" unicode="%" horiz-adv-x="855" 
d="M347 494q0 -99 -38 -158.5t-112 -59.5t-110.5 58t-36.5 158q0 101 37 160t112 59q76 0 112 -58t36 -159zM653 700l-369 -700h-88l369 700h88zM805 207q0 -99 -38 -158.5t-112 -59.5t-110.5 58t-36.5 158q0 101 37 160t112 59q76 0 112 -58t36 -159zM265 492
q0 141 -67 141q-65 0 -65 -139q0 -142 66 -142q33 0 49.5 39t16.5 101zM723 205q0 141 -67 141q-65 0 -65 -139q0 -142 66 -142q33 0 49.5 39t16.5 101z" />
    <glyph glyph-name="ampersand" unicode="&#x26;" horiz-adv-x="480" 
d="M471 0h-101l-35 59q-54 -70 -141 -70q-81 0 -121.5 46.5t-40.5 126.5q0 124 114 216l-17 30q-32 51 -45.5 85.5t-13.5 72.5q0 64 44.5 104.5t115.5 40.5q85 0 157 -56l-47 -80q-62 44 -111 44q-29 0 -45 -14.5t-16 -36.5q0 -47 33 -105l126 -217q13 45 27 105l80 -22
q-28 -118 -52 -178zM288 139l-98 166q-62 -65 -62 -132q0 -92 75 -92q52 0 85 58z" />
    <glyph glyph-name="quotesingle" unicode="'" horiz-adv-x="241" 
d="M179 700l-25 -327h-67l-25 327h117z" />
    <glyph glyph-name="parenleft" unicode="(" horiz-adv-x="310" 
d="M274 -70l-53 -40q-83 98 -127 191t-44 219q0 130 42.5 222t128.5 194l53 -40q-62 -84 -93.5 -170.5t-31.5 -200.5q0 -117 31.5 -204.5t93.5 -170.5z" />
    <glyph glyph-name="parenright" unicode=")" horiz-adv-x="310" 
d="M260 306q0 -130 -42.5 -222t-128.5 -194l-53 40q62 84 93.5 170.5t31.5 200.5q0 117 -31.5 204.5t-93.5 170.5l53 40q83 -98 127 -191t44 -219z" />
    <glyph glyph-name="asterisk" unicode="*" horiz-adv-x="429" 
d="M396 462l-41 -71l-115 82l15 -140h-80l14 141l-115 -83l-41 71l128 57l-127 58l41 70l114 -84l-14 140h80l-15 -137l114 82l41 -71l-131 -58z" />
    <glyph glyph-name="plus" unicode="+" horiz-adv-x="453" 
d="M418 297h-143v-158h-97v158h-143v94h143v158h97v-158h143v-94z" />
    <glyph glyph-name="comma" unicode="," horiz-adv-x="232" 
d="M187 126l-67 -239h-65l13 239h119z" />
    <glyph glyph-name="hyphen" unicode="-" horiz-adv-x="300" 
d="M260 316h-220v100h220v-100z" />
    <glyph glyph-name="hyphen" unicode="&#xad;" horiz-adv-x="300" 
d="M260 316h-220v100h220v-100z" />
    <glyph glyph-name="period" unicode="." horiz-adv-x="232" 
d="M186 59q0 -29 -20.5 -49.5t-49.5 -20.5t-49.5 20.5t-20.5 49.5t20.5 50t49.5 21t49.5 -21t20.5 -50z" />
    <glyph glyph-name="slash" unicode="/" horiz-adv-x="350" 
d="M356 790l-265 -880h-97l265 880h97z" />
    <glyph glyph-name="zero" unicode="0" horiz-adv-x="499" 
d="M456 351q0 -106 -20.5 -185t-68.5 -128t-119 -49q-105 0 -155 98.5t-50 261.5t50.5 262.5t155.5 99.5q106 0 156.5 -97.5t50.5 -262.5zM358 349q0 54 -5.5 99.5t-18 84t-34.5 60.5t-53 22q-106 0 -106 -264q0 -74 9 -130.5t35 -96t66 -39.5q107 0 107 264z" />
    <glyph glyph-name="one" unicode="1" horiz-adv-x="275" 
d="M210 0h-97v551h-94v68q49 6 74.5 24t36.5 57h80v-700z" />
    <glyph glyph-name="two" unicode="2" horiz-adv-x="474" 
d="M420 0h-372q5 104 28.5 176t61 120t105.5 104q38 31 54.5 58.5t16.5 62.5q0 44 -22.5 68t-62.5 24q-54 0 -117 -58l-61 71q83 85 184 85q86 0 132.5 -48t46.5 -129q0 -63 -26 -108.5t-91 -99.5q-63 -52 -95 -101t-42 -127h260v-98z" />
    <glyph glyph-name="three" unicode="3" horiz-adv-x="465" 
d="M418 201q0 -99 -57 -155.5t-145 -56.5q-64 0 -110 27.5t-85 84.5l72 61q32 -43 61.5 -60.5t66.5 -17.5q44 0 71.5 29.5t27.5 82.5q0 127 -138 127h-23v94h25q55 0 87.5 29.5t32.5 81.5q0 39 -21 63.5t-64 24.5q-46 0 -108 -59l-60 69q41 43 80.5 64t91.5 21
q81 0 130 -46.5t49 -133.5q0 -112 -99 -154q115 -37 115 -176z" />
    <glyph glyph-name="four" unicode="4" horiz-adv-x="475" 
d="M442 169h-48v-169h-95v169h-271v77l273 454h93v-438h48v-93zM302 544q-42 -77 -53 -94l-68 -111q-30 -49 -49 -78q9 0 33 0.5t39 0.5h95v182q0 15 0.5 31.5t1.5 36.5t1 32z" />
    <glyph glyph-name="five" unicode="5" horiz-adv-x="474" 
d="M431 238q0 -118 -55.5 -183.5t-163.5 -65.5q-101 0 -174 76l55 74q58 -55 124 -55q57 0 87 39.5t30 110.5q0 61 -25.5 99.5t-73.5 38.5q-58 0 -91 -50l-84 16l18 362h331v-96h-241l-9 -163q41 26 90 26q87 0 134.5 -61t47.5 -168z" />
    <glyph glyph-name="six" unicode="6" horiz-adv-x="468" 
d="M435 216q0 -104 -55 -165.5t-149 -61.5q-87 0 -137.5 64t-50.5 195q0 204 82 326.5t234 136.5v-92q-86 -11 -141.5 -75t-70.5 -157q40 45 110 45q79 0 128.5 -60t49.5 -156zM340 214q0 56 -27.5 90.5t-75.5 34.5q-47 0 -73 -34.5t-26 -96.5q0 -57 26.5 -91.5t72.5 -34.5
q49 0 76 35.5t27 96.5z" />
    <glyph glyph-name="seven" unicode="7" horiz-adv-x="440" 
d="M402 600q-97 -113 -134.5 -260t-37.5 -340h-98q0 398 165 605h-267v95h372v-100z" />
    <glyph glyph-name="eight" unicode="8" horiz-adv-x="478" 
d="M437 211q0 -99 -55.5 -160.5t-138.5 -61.5q-85 0 -141.5 56.5t-56.5 161.5q0 118 86 176q-71 46 -71 135q0 88 50.5 140.5t131.5 52.5q82 0 131.5 -52.5t49.5 -138.5q0 -90 -72 -137q86 -57 86 -172zM327 520q0 46 -22.5 71.5t-63.5 25.5q-40 0 -62.5 -25.5t-22.5 -71.5
q0 -42 23 -68.5t63 -26.5q41 0 63 26.5t22 68.5zM341 209q0 57 -26.5 90t-72.5 33q-47 0 -74 -33t-27 -90q0 -62 28 -94t76 -32q45 0 70.5 32.5t25.5 93.5z" />
    <glyph glyph-name="nine" unicode="9" horiz-adv-x="468" 
d="M425 452q0 -204 -82 -326.5t-234 -136.5v92q86 11 141.5 75t70.5 157q-40 -45 -110 -45q-79 0 -128.5 60t-49.5 156q0 104 55 165.5t149 61.5q87 0 137.5 -64t50.5 -195zM330 492q0 57 -26.5 91.5t-72.5 34.5q-49 0 -76 -35.5t-27 -96.5q0 -56 27.5 -90.5t75.5 -34.5
q47 0 73 34.5t26 96.5z" />
    <glyph glyph-name="colon" unicode=":" horiz-adv-x="232" 
d="M186 465q0 -29 -20.5 -49.5t-49.5 -20.5t-49.5 20.5t-20.5 49.5t20.5 50t49.5 21t49.5 -21t20.5 -50zM186 59q0 -29 -20.5 -49.5t-49.5 -20.5t-49.5 20.5t-20.5 49.5t20.5 50t49.5 21t49.5 -21t20.5 -50z" />
    <glyph glyph-name="semicolon" unicode=";" horiz-adv-x="232" 
d="M186 465q0 -29 -20.5 -49.5t-49.5 -20.5t-49.5 20.5t-20.5 49.5t20.5 50t49.5 21t49.5 -21t20.5 -50zM177 126l-67 -239h-65l13 239h119z" />
    <glyph glyph-name="less" unicode="&#x3c;" horiz-adv-x="324" 
d="M278 90l-241 210v88l241 210v-120l-157 -133l157 -134v-121z" />
    <glyph glyph-name="equal" unicode="=" horiz-adv-x="500" 
d="M435 411h-370v95h370v-95zM435 182h-370v95h370v-95z" />
    <glyph glyph-name="greater" unicode="&#x3e;" horiz-adv-x="324" 
d="M287 300l-241 -210v120l157 133l-157 134v121l241 -210v-88z" />
    <glyph glyph-name="question" unicode="?" horiz-adv-x="451" 
d="M411 537q0 -66 -26 -105.5t-78 -73.5q-37 -25 -46 -54.5t-9 -101.5h-101q0 95 17.5 139.5t84.5 88.5q57 38 57 98q0 41 -24 62.5t-64 21.5q-66 0 -142 -69l-62 73q95 95 208 95q89 0 137 -47t48 -127zM273 57q0 -29 -19.5 -48.5t-48.5 -19.5t-48.5 19.5t-19.5 48.5t20 49
t48 20t48 -20t20 -49z" />
    <glyph glyph-name="at" unicode="@" horiz-adv-x="646" 
d="M601 360q0 -112 -30.5 -159t-86.5 -47q-58 0 -82 60q-14 -26 -41 -43t-58 -17q-48 0 -82.5 35.5t-34.5 101.5q0 61 32.5 94t80.5 33q50 0 84 -26v51q0 31 -16.5 45t-52.5 14q-40 0 -74 -24l-22 49q49 34 102 34q122 0 122 -120v-168q0 -64 47 -64q31 0 44 37t13 115
q0 138 -61.5 215.5t-161.5 77.5q-101 0 -160.5 -82.5t-59.5 -220.5t60.5 -222t161.5 -84q56 0 98 23l20 -47q-53 -32 -120 -32q-122 0 -200 99t-78 262t78 262t200 99q124 0 201 -96.5t77 -254.5zM383 268v63q-30 30 -76 30q-60 0 -60 -68q0 -79 64 -79q21 0 41.5 15
t30.5 39z" />
    <glyph glyph-name="A" unicode="A" horiz-adv-x="494" 
d="M469 0h-107l-41 185h-152l-40 -185h-104l172 700h101zM301 278l-26 118q-5 23 -30 153q-24 -125 -30 -153l-26 -118h112z" />
    <glyph glyph-name="B" unicode="B" horiz-adv-x="497" 
d="M452 211q0 -102 -53 -156.5t-143 -54.5h-186v700h176q88 0 141 -46t53 -139q0 -46 -21 -86t-61 -59q44 -16 69 -58.5t25 -100.5zM340 512q0 93 -91 93h-82v-190h80q41 0 67 24.5t26 72.5zM352 211q0 56 -29 83t-78 27h-78v-226h88q97 0 97 116z" />
    <glyph glyph-name="C" unicode="C" horiz-adv-x="480" 
d="M437 166q-18 -85 -61 -131t-125 -46q-73 0 -120 50t-66.5 127.5t-19.5 182.5t21 184.5t69 128.5t119 49q153 0 182 -171l-99 -25q-10 51 -29 74t-57 23q-105 0 -105 -261q0 -70 9.5 -126t36 -96.5t66.5 -40.5q34 0 53.5 24.5t34.5 82.5z" />
    <glyph glyph-name="D" unicode="D" horiz-adv-x="507" 
d="M462 353q0 -161 -57 -257t-165 -96h-170v700h170q112 0 167 -92t55 -255zM361 353q0 50 -6 92t-19 79t-38.5 58.5t-60.5 21.5h-69v-508h72q34 0 58.5 22.5t37.5 60.5t19 81t6 93z" />
    <glyph glyph-name="E" unicode="E" horiz-adv-x="445" 
d="M412 0h-342v700h329v-95h-231v-187h151v-94h-151v-229h244v-95z" />
    <glyph glyph-name="F" unicode="F" horiz-adv-x="428" 
d="M404 605h-236v-192h151v-94h-151v-319h-98v700h334v-95z" />
    <glyph glyph-name="G" unicode="G" horiz-adv-x="511" 
d="M453 205q0 -96 -48.5 -156t-148.5 -60q-106 0 -158.5 100t-52.5 261q0 165 54 263t160 98q82 0 126.5 -44t60.5 -127l-98 -26q-12 54 -33 76t-59 22q-55 0 -82.5 -71.5t-27.5 -190.5q0 -49 5.5 -92t18 -83t36.5 -63.5t57 -23.5q49 0 69.5 30t20.5 96v50h-78v96h178v-155z
" />
    <glyph glyph-name="H" unicode="H" horiz-adv-x="532" 
d="M462 0h-98v324h-196v-324h-98v700h98v-280h196v280h98v-700z" />
    <glyph glyph-name="I" unicode="I" horiz-adv-x="248" 
d="M173 0h-98v700h98v-700z" />
    <glyph glyph-name="J" unicode="J" horiz-adv-x="438" 
d="M371 200q0 -102 -44.5 -156.5t-133.5 -54.5q-83 0 -124.5 47.5t-52.5 133.5l89 23q11 -59 31 -83t57 -24q80 0 80 111v503h98v-500z" />
    <glyph glyph-name="K" unicode="K" horiz-adv-x="482" 
d="M462 0h-106l-130 351l-58 -94v-257h-98v700h98v-177q0 -68 -2 -112q3 6 25 45.5t31 53.5l115 190h111l-152 -246z" />
    <glyph glyph-name="L" unicode="L" horiz-adv-x="418" 
d="M392 0h-322v700h98v-604h224v-96z" />
    <glyph glyph-name="M" unicode="M" horiz-adv-x="612" 
d="M542 0h-96v282q0 119 2 173q-28 -99 -54 -181l-90 -293l-90 293q-26 82 -54 181q2 -54 2 -173v-282h-92v700h103l90 -291q28 -90 43 -153q31 114 44 156l90 288h102v-700z" />
    <glyph glyph-name="N" unicode="N" horiz-adv-x="532" 
d="M462 0h-80l-169 375q-8 17 -27 62.5t-22 52.5q2 -52 2 -140v-350h-96v700h98l151 -333q8 -17 27 -62.5t22 -52.5q-2 52 -2 140v308h96v-700z" />
    <glyph glyph-name="O" unicode="O" horiz-adv-x="513" 
d="M468 351q0 -162 -53.5 -262t-159.5 -100t-158 99t-52 261t52.5 262t158.5 100t159 -99t53 -261zM368 349q0 70 -10 127t-37 97t-67 40q-31 0 -53 -22t-33.5 -61t-17 -83t-5.5 -96t6 -97t18.5 -83.5t35 -61t53.5 -22.5q40 0 66 40t35 95.5t9 126.5z" />
    <glyph glyph-name="P" unicode="P" horiz-adv-x="478" 
d="M452 496q0 -101 -58.5 -156t-143.5 -55h-82v-285h-98v700h185q82 0 139.5 -51t57.5 -153zM351 493q0 56 -29 83.5t-74 27.5h-80v-224h83q45 0 72.5 29t27.5 84z" />
    <glyph glyph-name="Q" unicode="Q" horiz-adv-x="513" 
d="M468 350q0 -196 -76 -291l35 -55l-69 -40l-28 43q-34 -18 -74 -18q-106 0 -158.5 99.5t-52.5 261.5t52.5 261.5t158.5 99.5t159 -99.5t53 -261.5zM368 350q0 71 -9.5 127t-36 96t-66.5 40q-31 0 -53 -22.5t-34.5 -61t-18 -83t-5.5 -96.5t5.5 -97t18 -84.5t34.5 -62
t53 -22.5q13 0 22 4l-48 73l69 40l37 -57q32 68 32 206z" />
    <glyph glyph-name="R" unicode="R" horiz-adv-x="510" 
d="M464 0h-109l-106 305h-81v-305h-98v700h197q84 0 139.5 -48t55.5 -146q0 -141 -110 -184zM361 503q0 52 -27.5 77t-74.5 25h-91v-206h91q102 0 102 104z" />
    <glyph glyph-name="S" unicode="S" horiz-adv-x="443" 
d="M403 181q0 -86 -50 -139t-141 -53q-118 0 -185 114l77 62q28 -43 54 -60.5t60 -17.5q40 0 62 23t22 66q0 41 -23.5 71t-93.5 76q-71 47 -106 92.5t-35 120.5q0 78 48 126.5t129 48.5q58 0 97.5 -23.5t72.5 -71.5l-72 -64q-26 35 -47.5 48t-53.5 13q-35 0 -54 -20t-19 -54
q0 -39 21.5 -66t80.5 -65q79 -51 117.5 -99t38.5 -128z" />
    <glyph glyph-name="T" unicode="T" horiz-adv-x="422" 
d="M389 604h-129v-604h-98v604h-129v96h356v-96z" />
    <glyph glyph-name="U" unicode="U" horiz-adv-x="526" 
d="M459 208q0 -102 -53 -160.5t-143 -58.5q-87 0 -141.5 59t-54.5 154v498h98v-494q0 -49 23.5 -83.5t74.5 -34.5q53 0 76 34.5t23 82.5v495h97v-492z" />
    <glyph glyph-name="V" unicode="V" horiz-adv-x="484" 
d="M459 700l-181 -700h-73l-180 700h107l81 -351q14 -63 31 -148q12 62 31 148l80 351h104z" />
    <glyph glyph-name="W" unicode="W" horiz-adv-x="618" 
d="M590 700l-126 -700h-75l-48 245q-26 125 -34 195q-6 -51 -33 -192l-48 -248h-73l-125 700h98l42 -252q28 -174 33 -213q1 11 7.5 54t14.5 93t10 65l40 253h75l41 -253q27 -162 33 -212q2 11 15 100t17 113l41 252h95z" />
    <glyph glyph-name="X" unicode="X" horiz-adv-x="465" 
d="M437 0h-108l-53 136q-39 102 -45 124q-13 -43 -45 -124l-53 -136h-105l153 360l-143 340h108l43 -111q35 -88 45 -126q10 32 45 126l43 111h105l-143 -337z" />
    <glyph glyph-name="Y" unicode="Y" horiz-adv-x="493" 
d="M471 700l-173 -387v-313h-98v310l-178 390h111l62 -146q39 -91 55 -146q15 53 54 147l60 145h107z" />
    <glyph glyph-name="Z" unicode="Z" horiz-adv-x="460" 
d="M413 0h-372v91l200 394q45 86 68 126q-42 -2 -101 -2h-141v91h340v-91l-201 -395q-33 -64 -68 -125q42 2 101 2h174v-91z" />
    <glyph glyph-name="bracketleft" unicode="[" horiz-adv-x="325" 
d="M274 -100h-199v800h199v-82h-106v-636h106v-82z" />
    <glyph glyph-name="backslash" unicode="\" horiz-adv-x="350" 
d="M356 -90h-97l-265 880h97z" />
    <glyph glyph-name="bracketright" unicode="]" horiz-adv-x="325" 
d="M250 -100h-199v79h106v642h-106v79h199v-800z" />
    <glyph glyph-name="asciicircum" unicode="^" horiz-adv-x="444" 
d="M414 382h-107l-86 202l-86 -202h-105l152 318h80z" />
    <glyph glyph-name="underscore" unicode="_" horiz-adv-x="350" 
d="M350 -170h-350v88h350v-88z" />
    <glyph glyph-name="grave" unicode="`" horiz-adv-x="400" 
d="M297 595h-82l-145 160h135z" />
    <glyph glyph-name="a" unicode="a" horiz-adv-x="434" 
d="M378 0h-96v36q-41 -47 -108 -47q-61 0 -102 45.5t-41 130.5q0 83 47 127.5t124 44.5q44 0 80 -17v51q0 39 -15.5 57t-52.5 18q-48 0 -103 -33l-41 73q75 50 151 50q86 0 121.5 -35t35.5 -122v-379zM282 125v105q-33 20 -79 20q-35 0 -55.5 -21t-20.5 -62q0 -91 66 -91
q61 0 89 49z" />
    <glyph glyph-name="b" unicode="b" horiz-adv-x="448" 
d="M409 257q0 -130 -43 -199t-122 -69q-53 0 -91 39v-28h-96v679l96 50v-239q43 46 98 46q76 0 117 -65t41 -214zM312 252q0 102 -19.5 148t-61.5 46q-49 0 -78 -48v-272q31 -47 83 -47q76 0 76 173z" />
    <glyph glyph-name="c" unicode="c" horiz-adv-x="410" 
d="M375 82q-29 -46 -64.5 -69.5t-88.5 -23.5q-85 0 -134 68.5t-49 202.5q0 136 49 206t138 70q94 0 148 -92l-69 -60q-21 33 -39 46.5t-43 13.5q-87 0 -87 -182q0 -181 90 -181q43 0 80 58z" />
    <glyph glyph-name="d" unicode="d" horiz-adv-x="448" 
d="M391 0h-96v35q-43 -46 -98 -46q-76 0 -117 65t-41 214q0 130 43 199t122 69q53 0 91 -39v182l96 50v-729zM295 127v272q-31 47 -83 47q-76 0 -76 -173q0 -102 19.5 -148t61.5 -46q49 0 78 48z" />
    <glyph glyph-name="e" unicode="e" horiz-adv-x="450" 
d="M411 264q0 -24 -1 -34h-275q9 -149 99 -149q32 0 52 8.5t43 30.5l59 -61q-63 -70 -156 -70q-92 0 -142.5 72.5t-50.5 198.5q0 134 50.5 205t136.5 71q82 0 133.5 -70t51.5 -202zM313 313q-2 60 -25.5 96.5t-63.5 36.5q-76 0 -88 -133h177z" />
    <glyph glyph-name="f" unicode="f" horiz-adv-x="291" 
d="M278 636q-18 6 -40 6q-34 0 -47.5 -13t-13.5 -43v-61h86v-90h-86v-435h-96v435h-53v90h53v74q0 62 32.5 94.5t85.5 32.5q48 0 79 -10v-80z" />
    <glyph glyph-name="g" unicode="g" horiz-adv-x="448" 
d="M391 46q0 -115 -48.5 -170.5t-165.5 -68.5l-27 77q86 11 115.5 42t29.5 106v4q-42 -47 -98 -47q-76 0 -117 65t-41 214q0 130 43 199t122 69q53 0 91 -39v28h96v-479zM295 127v272q-31 47 -83 47q-76 0 -76 -173q0 -102 19.5 -148t61.5 -46q49 0 78 48z" />
    <glyph glyph-name="h" unicode="h" horiz-adv-x="446" 
d="M392 0h-96v323q0 66 -14.5 94t-50.5 28q-49 0 -78 -48v-397h-96v679l96 50v-240q37 47 102 47q74 0 105.5 -47.5t31.5 -149.5v-339z" />
    <glyph glyph-name="i" unicode="i" horiz-adv-x="220" 
d="M169 666q0 -24 -17.5 -41.5t-41.5 -17.5q-25 0 -42.5 17.5t-17.5 41.5q0 25 17.5 42.5t42.5 17.5q24 0 41.5 -17.5t17.5 -42.5zM158 0h-96v525h96v-525z" />
    <glyph glyph-name="j" unicode="j" horiz-adv-x="220" 
d="M169 666q0 -24 -17.5 -41.5t-41.5 -17.5q-25 0 -42.5 17.5t-17.5 41.5q0 25 17.5 42.5t42.5 17.5q24 0 41.5 -17.5t17.5 -42.5zM158 19q0 -99 -41.5 -148.5t-132.5 -63.5l-25 78q58 14 80.5 41.5t22.5 86.5v512h96v-506z" />
    <glyph glyph-name="k" unicode="k" horiz-adv-x="424" 
d="M397 0h-105l-87 245l-52 -83v-162h-96v679l96 50v-315q0 -61 -2 -113q6 13 43 81l79 143h109l-113 -182z" />
    <glyph glyph-name="l" unicode="l" horiz-adv-x="220" 
d="M158 0h-96v679l96 50v-729z" />
    <glyph glyph-name="m" unicode="m" horiz-adv-x="665" 
d="M611 0h-96v323q0 70 -10.5 96t-44.5 26q-49 0 -78 -48v-397h-96v323q0 70 -10.5 96t-44.5 26q-49 0 -78 -48v-397h-96v525h96v-36q37 47 98 47q74 0 106 -56q49 56 123 56q76 0 103.5 -48.5t27.5 -158.5v-329z" />
    <glyph glyph-name="n" unicode="n" horiz-adv-x="446" 
d="M392 0h-96v323q0 66 -14.5 94t-50.5 28q-49 0 -78 -48v-397h-96v525h96v-36q37 47 102 47q74 0 105.5 -47.5t31.5 -149.5v-339z" />
    <glyph glyph-name="o" unicode="o" horiz-adv-x="456" 
d="M417 264q0 -135 -51.5 -205t-140.5 -70q-85 0 -135.5 68.5t-50.5 202.5q0 135 50 205.5t140 70.5q86 0 137 -69.5t51 -202.5zM320 262q0 182 -93 182q-91 0 -91 -182q0 -181 92 -181q44 0 68 49t24 132z" />
    <glyph glyph-name="p" unicode="p" horiz-adv-x="448" 
d="M409 257q0 -130 -43 -199t-122 -69q-53 0 -91 39v-171l-96 -50v718h96v-35q43 46 98 46q76 0 117 -65t41 -214zM312 252q0 102 -19.5 148t-61.5 46q-49 0 -78 -48v-272q31 -47 83 -47q76 0 76 173z" />
    <glyph glyph-name="q" unicode="q" horiz-adv-x="448" 
d="M391 -143l-96 -50v228q-43 -46 -98 -46q-76 0 -117 65t-41 214q0 130 43 199t122 69q53 0 91 -39v28h96v-668zM295 127v272q-31 47 -83 47q-76 0 -76 -173q0 -102 19.5 -148t61.5 -46q49 0 78 48z" />
    <glyph glyph-name="r" unicode="r" horiz-adv-x="336" 
d="M318 518l-23 -96q-28 16 -67 16q-47 0 -75 -41v-397h-96v525h96v-36q37 47 93 47q43 0 72 -18z" />
    <glyph glyph-name="s" unicode="s" horiz-adv-x="389" 
d="M351 144q0 -74 -43 -114.5t-120 -40.5q-85 0 -161 56l37 80q72 -45 122 -45q32 0 50.5 15.5t18.5 41.5t-20.5 45t-80.5 53q-57 33 -83 65.5t-26 89.5q0 69 39.5 107.5t110.5 38.5q79 0 143 -49l-39 -81q-55 39 -106 39q-26 0 -39 -12.5t-13 -33.5q0 -24 16.5 -41
t69.5 -48q67 -39 95.5 -72.5t28.5 -93.5z" />
    <glyph glyph-name="t" unicode="t" horiz-adv-x="319" 
d="M276 102l-11 -89q-37 -24 -86 -24q-101 0 -101 134v312h-57v90h57v153l96 51v-204h101v-90h-101v-303q0 -52 40 -52q36 0 62 22z" />
    <glyph glyph-name="u" unicode="u" horiz-adv-x="446" 
d="M389 0h-96v36q-37 -47 -102 -47q-74 0 -105.5 47.5t-31.5 149.5v339h96v-323q0 -66 14.5 -94t50.5 -28q49 0 78 48v397h96v-525z" />
    <glyph glyph-name="v" unicode="v" horiz-adv-x="416" 
d="M396 525l-131 -525h-111l-132 525h98l64 -283q18 -78 27 -132q6 35 26 134l61 281h98z" />
    <glyph glyph-name="w" unicode="w" horiz-adv-x="597" 
d="M573 525l-108 -525h-90l-54 253q-14 64 -24 129q-10 -60 -24 -132l-53 -250h-90l-106 525h92l39 -224q18 -112 23 -153q14 90 29 155l48 222h87l50 -222q18 -77 30 -155q9 75 22 153l37 224h92z" />
    <glyph glyph-name="x" unicode="x" horiz-adv-x="441" 
d="M414 0h-109l-48 111q-8 20 -35 90q-18 -48 -38 -93l-48 -108h-109l134 274l-123 251h108l38 -88q30 -72 36 -90q14 42 37 93l37 85h109l-122 -251z" />
    <glyph glyph-name="y" unicode="y" horiz-adv-x="434" 
d="M412 525l-207 -710h-94l57 185l-146 525h102l61 -249q17 -70 31 -143q11 62 32 144l62 248h102z" />
    <glyph glyph-name="z" unicode="z" horiz-adv-x="407" 
d="M361 0h-325v82l175 281q39 62 49 74q-19 -1 -93 -1h-114v89h308v-81l-170 -282q-39 -62 -49 -74q19 1 93 1h126v-89z" />
    <glyph glyph-name="braceleft" unicode="{" horiz-adv-x="345" 
d="M309 -110q-116 0 -159 50t-43 161v68q0 50 -12.5 69.5t-37.5 19.5h-26v84h26q25 0 37.5 19.5t12.5 69.5v69q0 111 43 161t159 50v-70q-64 -7 -84.5 -35.5t-20.5 -94.5v-55q0 -71 -17.5 -105.5t-62.5 -50.5q45 -16 62.5 -50.5t17.5 -105.5v-54q0 -66 20.5 -94.5
t84.5 -35.5v-70z" />
    <glyph glyph-name="bar" unicode="|" horiz-adv-x="246" 
d="M168 -185h-90v985h90v-985z" />
    <glyph glyph-name="braceright" unicode="}" horiz-adv-x="345" 
d="M314 259h-26q-25 0 -37.5 -19.5t-12.5 -69.5v-69q0 -111 -43 -161t-159 -50v70q64 7 84.5 35.5t20.5 94.5v55q0 71 17.5 105.5t62.5 50.5q-45 16 -62.5 50.5t-17.5 105.5v54q0 66 -20.5 94.5t-84.5 35.5v70q116 0 159 -50t43 -161v-68q0 -50 12.5 -69.5t37.5 -19.5h26
v-84z" />
    <glyph glyph-name="asciitilde" unicode="~" horiz-adv-x="562" 
d="M520 424q-28 -72 -63.5 -106.5t-89.5 -34.5q-47 0 -96 34q-59 40 -83 40q-23 0 -37.5 -15.5t-36.5 -60.5l-72 37q28 72 63.5 106.5t89.5 34.5q47 0 96 -34q58 -40 82 -40q23 0 38 15.5t37 60.5z" />
    <glyph glyph-name="exclamdown" unicode="&#xa1;" horiz-adv-x="248" 
d="M192 643q0 -29 -20 -49t-48 -20t-48 20t-20 49t20 48.5t48 19.5t48 -19.5t20 -48.5zM173 0h-98v348l16 150h66l16 -150v-348z" />
    <glyph glyph-name="cent" unicode="&#xa2;" horiz-adv-x="410" 
d="M375 176q-44 -70 -108 -88v-99h-99v102q-61 19 -95 85.5t-34 177.5q0 225 129 267v90h99v-86q64 -14 107 -87l-68 -59q-38 62 -83 62q-87 0 -87 -185q0 -184 90 -184q42 0 80 61z" />
    <glyph glyph-name="sterling" unicode="&#xa3;" horiz-adv-x="469" 
d="M446 636l-60 -73q-36 30 -59.5 40t-62.5 10q-36 0 -57.5 -22t-21.5 -58q0 -42 24 -99q17 -37 23 -64h114v-87h-109q-3 -58 -19.5 -100t-52.5 -94h267v-89h-372v102q46 49 63.5 88t19.5 93h-83v87h73q-10 26 -21 50q-27 54 -27 114q0 82 48 129.5t133 47.5q58 0 97.5 -17
t82.5 -58z" />
    <glyph glyph-name="currency" unicode="&#xa4;" horiz-adv-x="465" 
d="M139 390q-1 -13 -1 -39q0 -25 1 -37h176v-77h-168q26 -154 104 -154q38 0 59 27t34 85l91 -29q-22 -88 -65.5 -132.5t-125.5 -44.5q-103 0 -152 99t-49 261q0 161 51.5 261.5t152.5 100.5q83 0 126.5 -44.5t60.5 -126.5l-94 -26q-16 57 -35.5 80t-58.5 23q-75 0 -99 -150
h168v-77h-176z" />
    <glyph glyph-name="yen" unicode="&#xa5;" horiz-adv-x="463" 
d="M441 700l-160 -402v-88h102v-89h-102v-121h-94v121h-102v89h102v85l-165 405h110l52 -146q38 -104 51 -156q15 58 50 157l50 145h106z" />
    <glyph glyph-name="brokenbar" unicode="&#xa6;" 
d="M730 346l-179 -125q-9 -5 -16 -2q-10 9 -6 20l19 61h-127v-137l63 20q10 4 18 -6q4 -8 -3 -17l-124 -178l-126 178q-5 10 -2 17q9 11 20 6l62 -20v137h-127l19 -61q4 -10 -7 -20q-6 -3 -17 2l-177 125l179 125q8 7 15 3q11 -9 7 -19l-19 -63h127v134l-62 -19
q-10 -5 -20 7q-3 6 2 17l126 177l124 -178q6 -9 3 -16q-9 -10 -18 -7l-63 19v-134h127l-19 63q-4 10 6 19q8 4 16 -3z" />
    <glyph glyph-name="section" unicode="&#xa7;" horiz-adv-x="507" 
d="M462 261q0 -95 -93 -150q51 -45 51 -112q0 -74 -46 -118.5t-130 -44.5q-88 0 -165 57l53 76q55 -40 115 -40q32 0 50.5 16.5t18.5 47.5q0 27 -22 47t-84 51q-92 45 -128.5 85t-36.5 110q0 95 93 150q-51 45 -51 112q0 74 46 118.5t130 44.5q88 0 165 -57l-53 -76
q-55 40 -115 40q-32 0 -50.5 -16.5t-18.5 -47.5q0 -27 22 -47t84 -51q92 -45 128.5 -85t36.5 -110zM359 252q0 38 -22.5 61.5t-87.5 55.5q-5 3 -10.5 5.5t-12 5.5t-9.5 5q-69 -33 -69 -90q0 -38 22.5 -61.5t87.5 -55.5l32 -16q69 33 69 90z" />
    <glyph glyph-name="dieresis" unicode="&#xa8;" horiz-adv-x="400" 
d="M351 657q0 -25 -18.5 -43.5t-43.5 -18.5t-44 18.5t-19 43.5t19 44t44 19t43.5 -19t18.5 -44zM174 657q0 -25 -18.5 -43.5t-43.5 -18.5t-44 18.5t-19 43.5t18.5 44t44.5 19q25 0 43.5 -19t18.5 -44z" />
    <glyph glyph-name="copyright" unicode="&#xa9;" horiz-adv-x="646" 
d="M601 350q0 -163 -78 -262t-200 -99t-200 99t-78 262t78 262t200 99t200 -99t78 -262zM543 349q0 139 -59.5 223t-160.5 84t-160.5 -83.5t-59.5 -221.5t60.5 -222.5t161.5 -84.5t159.5 83.5t58.5 221.5zM428 250q-21 -102 -105 -102q-61 0 -88.5 56t-27.5 148t29 148
t89 56q86 0 103 -97l-58 -14q-6 27 -16 39.5t-31 12.5q-57 0 -57 -144q0 -62 14.5 -104t46.5 -42q18 0 29 14t19 46z" />
    <glyph glyph-name="ordfeminine" unicode="&#xaa;" horiz-adv-x="378" 
d="M323 277h-78v29q-32 -38 -87 -38q-49 0 -82.5 37t-33.5 105t38 104t101 36q34 0 64 -14v41q0 32 -12 46.5t-43 14.5q-40 0 -83 -27l-33 59q62 41 120 41q71 0 100 -28.5t29 -98.5v-307zM245 378v85q-26 16 -64 16q-28 0 -44.5 -17t-16.5 -50q0 -74 53 -74q50 0 72 40z
" />
    <glyph glyph-name="guillemotleft" unicode="&#xab;" horiz-adv-x="490" 
d="M445 0h-98l-135 262l135 263h98l-130 -262zM253 0h-98l-135 262l135 263h98l-130 -262z" />
    <glyph glyph-name="logicalnot" unicode="&#xac;" horiz-adv-x="550" 
d="M530 346l-179 -126q-11 -6 -19 -2q-13 10 -8 23l18 57h-297v96h297l-18 58q-4 13 8 22q8 4 19 -3z" />
    <glyph glyph-name="registered" unicode="&#xae;" horiz-adv-x="646" 
d="M601 350q0 -163 -78 -262t-200 -99t-200 99t-78 262t78 262t200 99t200 -99t78 -262zM543 349q0 139 -59.5 223t-160.5 84t-160.5 -83.5t-59.5 -221.5t60.5 -222.5t161.5 -84.5t159.5 83.5t58.5 221.5zM447 443q0 -76 -63 -102l62 -180h-64l-58 169h-42v-169h-58v394h111
q48 0 80 -28t32 -84zM387 443q0 55 -54 55h-51v-112h49q56 0 56 57z" />
    <glyph glyph-name="macron" unicode="&#xaf;" horiz-adv-x="400" 
d="M330 610h-260v85h260v-85z" />
    <glyph glyph-name="macron" unicode="&#x2c9;" horiz-adv-x="400" 
d="M330 610h-260v85h260v-85z" />
    <glyph glyph-name="degree" unicode="&#xb0;" horiz-adv-x="400" 
d="M368 544q0 -72 -48.5 -120.5t-119.5 -48.5t-119.5 48.5t-48.5 120.5q0 70 49 118.5t119 48.5q71 0 119.5 -48.5t48.5 -118.5zM289 544q0 36 -26 62.5t-63 26.5t-63 -26.5t-26 -62.5q0 -38 26 -64.5t63 -26.5t63 26.5t26 64.5z" />
    <glyph glyph-name="plusminus" unicode="&#xb1;" 
d="M730 346l-179 -125q-9 -5 -16 -2q-10 9 -6 20l19 61h-127v-137l63 20q10 4 18 -6q4 -8 -3 -17l-124 -178l-126 178q-5 10 -2 17q9 11 20 6l62 -20v137h-127l19 -61q4 -10 -7 -20q-6 -3 -17 2l-177 125l179 125q8 7 15 3q11 -9 7 -19l-19 -63h127v134l-62 -19
q-10 -5 -20 7q-3 6 2 17l126 177l124 -178q6 -9 3 -16q-9 -10 -18 -7l-63 19v-134h127l-19 63q-4 10 6 19q8 4 16 -3z" />
    <glyph glyph-name="twosuperior" unicode="&#xb2;" 
d="M730 346l-179 -125q-9 -5 -16 -2q-10 9 -6 20l19 61h-127v-137l63 20q10 4 18 -6q4 -8 -3 -17l-124 -178l-126 178q-5 10 -2 17q9 11 20 6l62 -20v137h-127l19 -61q4 -10 -7 -20q-6 -3 -17 2l-177 125l179 125q8 7 15 3q11 -9 7 -19l-19 -63h127v134l-62 -19
q-10 -5 -20 7q-3 6 2 17l126 177l124 -178q6 -9 3 -16q-9 -10 -18 -7l-63 19v-134h127l-19 63q-4 10 6 19q8 4 16 -3z" />
    <glyph glyph-name="threesuperior" unicode="&#xb3;" 
d="M730 346l-179 -125q-9 -5 -16 -2q-10 9 -6 20l19 61h-127v-137l63 20q10 4 18 -6q4 -8 -3 -17l-124 -178l-126 178q-5 10 -2 17q9 11 20 6l62 -20v137h-127l19 -61q4 -10 -7 -20q-6 -3 -17 2l-177 125l179 125q8 7 15 3q11 -9 7 -19l-19 -63h127v134l-62 -19
q-10 -5 -20 7q-3 6 2 17l126 177l124 -178q6 -9 3 -16q-9 -10 -18 -7l-63 19v-134h127l-19 63q-4 10 6 19q8 4 16 -3z" />
    <glyph glyph-name="acute" unicode="&#xb4;" horiz-adv-x="400" 
d="M330 755l-145 -160h-82l92 160h135z" />
    <glyph glyph-name="mu" unicode="&#xb5;" horiz-adv-x="700" 
d="M680 346l-179 -126q-11 -6 -19 -2q-13 10 -8 23l18 57h-284l18 -57q5 -13 -8 -23q-8 -4 -19 2l-179 126l179 125q11 7 19 3q12 -9 8 -22l-18 -58h284l-18 58q-4 13 8 22q8 4 19 -3z" />
    <glyph glyph-name="mu" unicode="&#x3bc;" horiz-adv-x="700" 
d="M680 346l-179 -126q-11 -6 -19 -2q-13 10 -8 23l18 57h-284l18 -57q5 -13 -8 -23q-8 -4 -19 2l-179 126l179 125q11 7 19 3q12 -9 8 -22l-18 -58h284l-18 58q-4 13 8 22q8 4 19 -3z" />
    <glyph glyph-name="paragraph" unicode="&#xb6;" horiz-adv-x="607" 
d="M542 -185h-95v789h-79v-789h-95v470h-35q-79 0 -137.5 51.5t-58.5 152.5t58.5 156t143.5 55h298v-885z" />
    <glyph glyph-name="periodcentered" unicode="&#xb7;" horiz-adv-x="232" 
d="M186 367q0 -29 -20.5 -49.5t-49.5 -20.5t-49.5 20.5t-20.5 49.5t20.5 50t49.5 21t49.5 -21t20.5 -50z" />
    <glyph glyph-name="periodcentered" unicode="&#x2219;" horiz-adv-x="232" 
d="M186 367q0 -29 -20.5 -49.5t-49.5 -20.5t-49.5 20.5t-20.5 49.5t20.5 50t49.5 21t49.5 -21t20.5 -50z" />
    <glyph glyph-name="cedilla" unicode="&#xb8;" horiz-adv-x="400" 
d="M310 -110q0 -83 -107 -83q-52 0 -101 29l20 32q33 -17 73 -17q49 0 49 36q0 33 -26 33q-18 0 -37 -12l-32 13l19 91h47l-11 -60q15 9 42 9q28 0 46 -18t18 -53z" />
    <glyph glyph-name="onesuperior" unicode="&#xb9;" 
d="M730 346l-179 -125q-9 -5 -16 -2q-10 9 -6 20l19 61h-127v-137l63 20q10 4 18 -6q4 -8 -3 -17l-124 -178l-126 178q-5 10 -2 17q9 11 20 6l62 -20v137h-127l19 -61q4 -10 -7 -20q-6 -3 -17 2l-177 125l179 125q8 7 15 3q11 -9 7 -19l-19 -63h127v134l-62 -19
q-10 -5 -20 7q-3 6 2 17l126 177l124 -178q6 -9 3 -16q-9 -10 -18 -7l-63 19v-134h127l-19 63q-4 10 6 19q8 4 16 -3z" />
    <glyph glyph-name="ordmasculine" unicode="&#xba;" horiz-adv-x="384" 
d="M345 491q0 -109 -42 -166t-114 -57q-69 0 -109.5 55.5t-40.5 163.5q0 110 40.5 167t113.5 57q70 0 111 -56t41 -164zM266 489q0 147 -75 147q-74 0 -74 -147t75 -147q35 0 54.5 40t19.5 107z" />
    <glyph glyph-name="guillemotright" unicode="&#xbb;" horiz-adv-x="490" 
d="M470 263l-135 -263h-98l130 262l-130 263h98zM278 263l-135 -263h-98l130 262l-130 263h98z" />
    <glyph glyph-name="onequarter" unicode="&#xbc;" 
d="M730 346l-179 -125q-9 -5 -16 -2q-10 9 -6 20l19 61h-127v-137l63 20q10 4 18 -6q4 -8 -3 -17l-124 -178l-126 178q-5 10 -2 17q9 11 20 6l62 -20v137h-127l19 -61q4 -10 -7 -20q-6 -3 -17 2l-177 125l179 125q8 7 15 3q11 -9 7 -19l-19 -63h127v134l-62 -19
q-10 -5 -20 7q-3 6 2 17l126 177l124 -178q6 -9 3 -16q-9 -10 -18 -7l-63 19v-134h127l-19 63q-4 10 6 19q8 4 16 -3z" />
    <glyph glyph-name="onehalf" unicode="&#xbd;" 
d="M730 346l-179 -125q-9 -5 -16 -2q-10 9 -6 20l19 61h-127v-137l63 20q10 4 18 -6q4 -8 -3 -17l-124 -178l-126 178q-5 10 -2 17q9 11 20 6l62 -20v137h-127l19 -61q4 -10 -7 -20q-6 -3 -17 2l-177 125l179 125q8 7 15 3q11 -9 7 -19l-19 -63h127v134l-62 -19
q-10 -5 -20 7q-3 6 2 17l126 177l124 -178q6 -9 3 -16q-9 -10 -18 -7l-63 19v-134h127l-19 63q-4 10 6 19q8 4 16 -3z" />
    <glyph glyph-name="threequarters" unicode="&#xbe;" 
d="M730 346l-179 -125q-9 -5 -16 -2q-10 9 -6 20l19 61h-127v-137l63 20q10 4 18 -6q4 -8 -3 -17l-124 -178l-126 178q-5 10 -2 17q9 11 20 6l62 -20v137h-127l19 -61q4 -10 -7 -20q-6 -3 -17 2l-177 125l179 125q8 7 15 3q11 -9 7 -19l-19 -63h127v134l-62 -19
q-10 -5 -20 7q-3 6 2 17l126 177l124 -178q6 -9 3 -16q-9 -10 -18 -7l-63 19v-134h127l-19 63q-4 10 6 19q8 4 16 -3z" />
    <glyph glyph-name="questiondown" unicode="&#xbf;" horiz-adv-x="451" 
d="M314 643q0 -29 -20 -49t-48 -20t-48 20t-20 49t20 48.5t48 19.5t48 -19.5t20 -48.5zM433 84q-95 -95 -208 -95q-89 0 -137 47t-48 127q0 66 26 105.5t78 73.5q37 25 46 54.5t9 101.5h101q0 -95 -17.5 -139.5t-84.5 -88.5q-57 -38 -57 -98q0 -41 24 -62.5t64 -21.5
q65 0 142 69z" />
    <glyph glyph-name="Agrave" unicode="&#xc0;" horiz-adv-x="494" 
d="M469 0h-107l-41 185h-152l-40 -185h-104l172 700h101zM301 278l-26 118q-5 23 -30 153q-24 -125 -30 -153l-26 -118h112zM297 745h-82l-145 160h135z" />
    <glyph glyph-name="Aacute" unicode="&#xc1;" horiz-adv-x="494" 
d="M469 0h-107l-41 185h-152l-40 -185h-104l172 700h101zM301 278l-26 118q-5 23 -30 153q-24 -125 -30 -153l-26 -118h112zM424 905l-145 -160h-82l92 160h135z" />
    <glyph glyph-name="Acircumflex" unicode="&#xc2;" horiz-adv-x="494" 
d="M469 0h-107l-41 185h-152l-40 -185h-104l172 700h101zM301 278l-26 118q-5 23 -30 153q-24 -125 -30 -153l-26 -118h112zM401 734h-78l-77 88l-77 -88h-76l102 160h104z" />
    <glyph glyph-name="Atilde" unicode="&#xc3;" horiz-adv-x="494" 
d="M469 0h-107l-41 185h-152l-40 -185h-104l172 700h101zM301 278l-26 118q-5 23 -30 153q-24 -125 -30 -153l-26 -118h112zM417 866q0 -60 -26 -93t-68 -33q-43 0 -106 40q-22 12 -33 12q-30 0 -35 -47h-66q0 59 27 91.5t69 32.5q41 0 104 -40q22 -12 35 -12
q15 0 22.5 11.5t10.5 37.5h66z" />
    <glyph glyph-name="Adieresis" unicode="&#xc4;" horiz-adv-x="494" 
d="M469 0h-107l-41 185h-152l-40 -185h-104l172 700h101zM301 278l-26 118q-5 23 -30 153q-24 -125 -30 -153l-26 -118h112zM398 807q0 -25 -18.5 -43.5t-43.5 -18.5t-44 18.5t-19 43.5t18.5 44t44.5 19q25 0 43.5 -19t18.5 -44zM221 807q0 -25 -18.5 -43.5t-43.5 -18.5
t-44 18.5t-19 43.5t19 44t44 19t43.5 -19t18.5 -44z" />
    <glyph glyph-name="Aring" unicode="&#xc5;" horiz-adv-x="494" 
d="M469 0h-107l-41 185h-152l-40 -185h-104l158 643q-49 31 -49 94q0 49 32 81t81 32t81 -32t32 -81q0 -62 -48 -93zM302 737q0 24 -16 40t-39 16t-39 -16t-16 -40t16 -40t39 -16t39 16t16 40zM301 278l-26 118q-5 23 -30 153q-24 -125 -30 -153l-26 -118h112z" />
    <glyph glyph-name="AE" unicode="&#xc6;" horiz-adv-x="667" 
d="M634 0h-327v165h-137l-54 -165h-99l242 700h362v-95h-221v-187h141v-94h-141v-229h234v-95zM309 597q-11 -40 -42 -135l-67 -204h107v213q0 56 2 126z" />
    <glyph glyph-name="Ccedilla" unicode="&#xc7;" horiz-adv-x="480" 
d="M437 166q-17 -82 -58 -127.5t-117 -49.5l-7 -37q15 9 42 9q28 0 46 -18t18 -53q0 -83 -107 -83q-52 0 -101 29l20 32q33 -17 73 -17q49 0 49 36q0 33 -26 33q-18 0 -37 -12l-32 13l15 71q-88 17 -129 113.5t-41 243.5q0 105 21 184.5t69 128.5t119 49q153 0 182 -171
l-99 -25q-10 51 -29 74t-57 23q-105 0 -105 -261q0 -70 9.5 -126t36 -96.5t66.5 -40.5q34 0 53.5 24.5t34.5 82.5z" />
    <glyph glyph-name="Egrave" unicode="&#xc8;" horiz-adv-x="445" 
d="M412 0h-342v700h329v-95h-231v-187h151v-94h-151v-229h244v-95zM281 745h-82l-145 160h135z" />
    <glyph glyph-name="Eacute" unicode="&#xc9;" horiz-adv-x="445" 
d="M412 0h-342v700h329v-95h-231v-187h151v-94h-151v-229h244v-95zM408 905l-145 -160h-82l92 160h135z" />
    <glyph glyph-name="Ecircumflex" unicode="&#xca;" horiz-adv-x="445" 
d="M412 0h-342v700h329v-95h-231v-187h151v-94h-151v-229h244v-95zM385 745h-78l-77 88l-77 -88h-76l102 160h104z" />
    <glyph glyph-name="Edieresis" unicode="&#xcb;" horiz-adv-x="445" 
d="M412 0h-342v700h329v-95h-231v-187h151v-94h-151v-229h244v-95zM382 807q0 -25 -18.5 -43.5t-43.5 -18.5t-44 18.5t-19 43.5t18.5 44t44.5 19q25 0 43.5 -19t18.5 -44zM205 807q0 -25 -18.5 -43.5t-43.5 -18.5t-44 18.5t-19 43.5t19 44t44 19t43.5 -19t18.5 -44z" />
    <glyph glyph-name="Igrave" unicode="&#xcc;" horiz-adv-x="248" 
d="M173 0h-98v700h98v-700zM169 745h-82l-145 160h135z" />
    <glyph glyph-name="Iacute" unicode="&#xcd;" horiz-adv-x="248" 
d="M173 0h-98v700h98v-700zM306 905l-145 -160h-82l92 160h135z" />
    <glyph glyph-name="Icircumflex" unicode="&#xce;" horiz-adv-x="248" 
d="M173 0h-98v700h98v-700zM278 738h-78l-77 88l-77 -88h-76l102 160h104z" />
    <glyph glyph-name="Idieresis" unicode="&#xcf;" horiz-adv-x="248" 
d="M173 0h-98v700h98v-700zM275 807q0 -25 -18.5 -43.5t-43.5 -18.5t-44 18.5t-19 43.5t19 44t44 19t43.5 -19t18.5 -44zM98 807q0 -25 -18.5 -43.5t-43.5 -18.5t-44 18.5t-19 43.5t18.5 44t44.5 19q25 0 43.5 -19t18.5 -44z" />
    <glyph glyph-name="Eth" unicode="&#xd0;" horiz-adv-x="517" 
d="M472 353q0 -161 -57 -257t-165 -96h-170v321h-50v90h50v289h170q112 0 167 -92t55 -255zM371 353q0 50 -6 92t-19 79t-38.5 58.5t-60.5 21.5h-71v-193h81v-90h-81v-225h74q34 0 58.5 22.5t37.5 60.5t19 81t6 93z" />
    <glyph glyph-name="Ntilde" unicode="&#xd1;" horiz-adv-x="532" 
d="M462 0h-80l-169 375q-8 17 -27 62.5t-22 52.5q2 -52 2 -140v-350h-96v700h98l151 -333q8 -17 27 -62.5t22 -52.5q-2 52 -2 140v308h96v-700zM436 868q0 -60 -26 -93t-68 -33q-43 0 -106 40q-22 12 -33 12q-30 0 -35 -47h-66q0 59 27 91.5t69 32.5q41 0 104 -40
q22 -12 35 -12q15 0 22.5 11.5t10.5 37.5h66z" />
    <glyph glyph-name="Ograve" unicode="&#xd2;" horiz-adv-x="513" 
d="M468 351q0 -162 -53.5 -262t-159.5 -100t-158 99t-52 261t52.5 262t158.5 100t159 -99t53 -261zM368 349q0 70 -10 127t-37 97t-67 40q-31 0 -53 -22t-33.5 -61t-17 -83t-5.5 -96t6 -97t18.5 -83.5t35 -61t53.5 -22.5q40 0 66 40t35 95.5t9 126.5zM304 745h-82l-145 160
h135z" />
    <glyph glyph-name="Oacute" unicode="&#xd3;" horiz-adv-x="513" 
d="M468 351q0 -162 -53.5 -262t-159.5 -100t-158 99t-52 261t52.5 262t158.5 100t159 -99t53 -261zM368 349q0 70 -10 127t-37 97t-67 40q-31 0 -53 -22t-33.5 -61t-17 -83t-5.5 -96t6 -97t18.5 -83.5t35 -61t53.5 -22.5q40 0 66 40t35 95.5t9 126.5zM431 905l-145 -160h-82
l92 160h135z" />
    <glyph glyph-name="Ocircumflex" unicode="&#xd4;" horiz-adv-x="513" 
d="M468 351q0 -162 -53.5 -262t-159.5 -100t-158 99t-52 261t52.5 262t158.5 100t159 -99t53 -261zM368 349q0 70 -10 127t-37 97t-67 40q-31 0 -53 -22t-33.5 -61t-17 -83t-5.5 -96t6 -97t18.5 -83.5t35 -61t53.5 -22.5q40 0 66 40t35 95.5t9 126.5zM408 740h-78l-77 88
l-77 -88h-76l102 160h104z" />
    <glyph glyph-name="Otilde" unicode="&#xd5;" horiz-adv-x="513" 
d="M468 351q0 -162 -53.5 -262t-159.5 -100t-158 99t-52 261t52.5 262t158.5 100t159 -99t53 -261zM368 349q0 70 -10 127t-37 97t-67 40q-31 0 -53 -22t-33.5 -61t-17 -83t-5.5 -96t6 -97t18.5 -83.5t35 -61t53.5 -22.5q40 0 66 40t35 95.5t9 126.5zM424 866q0 -60 -26 -93
t-68 -33q-43 0 -106 40q-22 12 -33 12q-30 0 -35 -47h-66q0 59 27 91.5t69 32.5q41 0 104 -40q22 -12 35 -12q15 0 22.5 11.5t10.5 37.5h66z" />
    <glyph glyph-name="Odieresis" unicode="&#xd6;" horiz-adv-x="513" 
d="M468 351q0 -162 -53.5 -262t-159.5 -100t-158 99t-52 261t52.5 262t158.5 100t159 -99t53 -261zM368 349q0 70 -10 127t-37 97t-67 40q-31 0 -53 -22t-33.5 -61t-17 -83t-5.5 -96t6 -97t18.5 -83.5t35 -61t53.5 -22.5q40 0 66 40t35 95.5t9 126.5zM404 807
q0 -25 -18.5 -43.5t-43.5 -18.5t-44 18.5t-19 43.5t18.5 44t44.5 19q25 0 43.5 -19t18.5 -44zM227 807q0 -25 -18.5 -43.5t-43.5 -18.5t-44 18.5t-19 43.5t19 44t44 19t43.5 -19t18.5 -44z" />
    <glyph glyph-name="multiply" unicode="&#xd7;" 
d="M730 346l-179 -125q-9 -5 -16 -2q-10 9 -6 20l19 61h-127v-137l63 20q10 4 18 -6q4 -8 -3 -17l-124 -178l-126 178q-5 10 -2 17q9 11 20 6l62 -20v137h-127l19 -61q4 -10 -7 -20q-6 -3 -17 2l-177 125l179 125q8 7 15 3q11 -9 7 -19l-19 -63h127v134l-62 -19
q-10 -5 -20 7q-3 6 2 17l126 177l124 -178q6 -9 3 -16q-9 -10 -18 -7l-63 19v-134h127l-19 63q-4 10 6 19q8 4 16 -3z" />
    <glyph glyph-name="Oslash" unicode="&#xd8;" horiz-adv-x="513" 
d="M468 351q0 -162 -53.5 -262t-159.5 -100q-40 0 -75 16l-18 -55h-86l38 111q-69 95 -69 288q0 162 52.5 262t158.5 100q42 0 74 -16l19 55h86l-38 -111q71 -94 71 -288zM299 602q-20 14 -45 14q-41 0 -67 -40.5t-35 -96.5t-9 -128q0 -96 17 -160zM370 349q0 98 -18 162
l-140 -412q20 -15 46 -15q59 0 85.5 76t26.5 189z" />
    <glyph glyph-name="Ugrave" unicode="&#xd9;" horiz-adv-x="526" 
d="M459 208q0 -102 -53 -160.5t-143 -58.5q-87 0 -141.5 59t-54.5 154v498h98v-494q0 -49 23.5 -83.5t74.5 -34.5q53 0 76 34.5t23 82.5v495h97v-492zM314 735h-82l-145 160h135z" />
    <glyph glyph-name="Uacute" unicode="&#xda;" horiz-adv-x="526" 
d="M459 208q0 -102 -53 -160.5t-143 -58.5q-87 0 -141.5 59t-54.5 154v498h98v-494q0 -49 23.5 -83.5t74.5 -34.5q53 0 76 34.5t23 82.5v495h97v-492zM441 895l-145 -160h-82l92 160h135z" />
    <glyph glyph-name="Ucircumflex" unicode="&#xdb;" horiz-adv-x="526" 
d="M459 208q0 -102 -53 -160.5t-143 -58.5q-87 0 -141.5 59t-54.5 154v498h98v-494q0 -49 23.5 -83.5t74.5 -34.5q53 0 76 34.5t23 82.5v495h97v-492zM418 745h-78l-77 88l-77 -88h-76l102 160h104z" />
    <glyph glyph-name="Udieresis" unicode="&#xdc;" horiz-adv-x="526" 
d="M459 208q0 -102 -53 -160.5t-143 -58.5q-87 0 -141.5 59t-54.5 154v498h98v-494q0 -49 23.5 -83.5t74.5 -34.5q53 0 76 34.5t23 82.5v495h97v-492zM414 807q0 -25 -18.5 -43.5t-43.5 -18.5t-44 18.5t-19 43.5t18.5 44t44.5 19q25 0 43.5 -19t18.5 -44zM237 807
q0 -25 -18.5 -43.5t-43.5 -18.5t-44 18.5t-19 43.5t19 44t44 19t43.5 -19t18.5 -44z" />
    <glyph glyph-name="Yacute" unicode="&#xdd;" horiz-adv-x="493" 
d="M471 700l-173 -387v-313h-98v310l-178 390h111l62 -146q39 -91 55 -146q15 53 54 147l60 145h107zM425 900l-145 -160h-82l92 160h135z" />
    <glyph glyph-name="Thorn" unicode="&#xde;" horiz-adv-x="478" 
d="M452 368q0 -101 -58.5 -156t-143.5 -55h-82v-157h-98v700h98v-128h87q82 0 139.5 -51t57.5 -153zM351 365q0 56 -29 83.5t-74 27.5h-80v-224h83q45 0 72.5 29t27.5 84z" />
    <glyph glyph-name="germandbls" unicode="&#xdf;" horiz-adv-x="463" 
d="M421 218q0 -108 -47.5 -163t-151.5 -55h-11v88h12q101 0 101 127q0 70 -24.5 103.5t-78.5 33.5h-10v87h9q40 0 60 27t20 72q0 99 -75 99q-39 0 -55.5 -23t-16.5 -72v-683l-96 -52v724q0 102 40.5 148.5t129.5 46.5q82 0 126 -47t44 -133q0 -103 -71 -144q95 -37 95 -184z
" />
    <glyph glyph-name="agrave" unicode="&#xe0;" horiz-adv-x="434" 
d="M378 0h-96v36q-41 -47 -108 -47q-61 0 -102 45.5t-41 130.5q0 83 47 127.5t124 44.5q44 0 80 -17v51q0 39 -15.5 57t-52.5 18q-48 0 -103 -33l-41 73q75 50 151 50q86 0 121.5 -35t35.5 -122v-379zM282 125v105q-33 20 -79 20q-35 0 -55.5 -21t-20.5 -62q0 -91 66 -91
q61 0 89 49zM268 595h-82l-145 160h135z" />
    <glyph glyph-name="aacute" unicode="&#xe1;" horiz-adv-x="434" 
d="M378 0h-96v36q-41 -47 -108 -47q-61 0 -102 45.5t-41 130.5q0 83 47 127.5t124 44.5q44 0 80 -17v51q0 39 -15.5 57t-52.5 18q-48 0 -103 -33l-41 73q75 50 151 50q86 0 121.5 -35t35.5 -122v-379zM282 125v105q-33 20 -79 20q-35 0 -55.5 -21t-20.5 -62q0 -91 66 -91
q61 0 89 49zM395 755l-145 -160h-82l92 160h135z" />
    <glyph glyph-name="acircumflex" unicode="&#xe2;" horiz-adv-x="434" 
d="M378 0h-96v36q-41 -47 -108 -47q-61 0 -102 45.5t-41 130.5q0 83 47 127.5t124 44.5q44 0 80 -17v51q0 39 -15.5 57t-52.5 18q-48 0 -103 -33l-41 73q75 50 151 50q86 0 121.5 -35t35.5 -122v-379zM282 125v105q-33 20 -79 20q-35 0 -55.5 -21t-20.5 -62q0 -91 66 -91
q61 0 89 49zM372 590h-78l-77 88l-77 -88h-76l102 160h104z" />
    <glyph glyph-name="atilde" unicode="&#xe3;" horiz-adv-x="434" 
d="M378 0h-96v36q-41 -47 -108 -47q-61 0 -102 45.5t-41 130.5q0 83 47 127.5t124 44.5q44 0 80 -17v51q0 39 -15.5 57t-52.5 18q-48 0 -103 -33l-41 73q75 50 151 50q86 0 121.5 -35t35.5 -122v-379zM282 125v105q-33 20 -79 20q-35 0 -55.5 -21t-20.5 -62q0 -91 66 -91
q61 0 89 49zM388 716q0 -60 -26 -93t-68 -33q-43 0 -106 40q-22 12 -33 12q-30 0 -35 -47h-66q0 59 27 91.5t69 32.5q41 0 104 -40q22 -12 35 -12q15 0 22.5 11.5t10.5 37.5h66z" />
    <glyph glyph-name="adieresis" unicode="&#xe4;" horiz-adv-x="434" 
d="M378 0h-96v36q-41 -47 -108 -47q-61 0 -102 45.5t-41 130.5q0 83 47 127.5t124 44.5q44 0 80 -17v51q0 39 -15.5 57t-52.5 18q-48 0 -103 -33l-41 73q75 50 151 50q86 0 121.5 -35t35.5 -122v-379zM282 125v105q-33 20 -79 20q-35 0 -55.5 -21t-20.5 -62q0 -91 66 -91
q61 0 89 49zM369 652q0 -25 -18.5 -43.5t-43.5 -18.5t-44 18.5t-19 43.5q0 26 19 44.5t44 18.5t43.5 -19t18.5 -44zM192 652q0 -25 -18.5 -43.5t-43.5 -18.5t-44 18.5t-19 43.5q0 26 18.5 44.5t44.5 18.5q25 0 43.5 -19t18.5 -44z" />
    <glyph glyph-name="aring" unicode="&#xe5;" horiz-adv-x="434" 
d="M378 0h-96v36q-41 -47 -108 -47q-61 0 -102 45.5t-41 130.5q0 83 47 127.5t124 44.5q44 0 80 -17v51q0 39 -15.5 57t-52.5 18q-48 0 -103 -33l-41 73q75 50 151 50q86 0 121.5 -35t35.5 -122v-379zM282 125v105q-33 20 -79 20q-35 0 -55.5 -21t-20.5 -62q0 -91 66 -91
q61 0 89 49zM331 707q0 -49 -32 -80.5t-81 -31.5t-81 31.5t-32 80.5t32 81t81 32t81 -32t32 -81zM273 707q0 24 -16 40t-39 16t-39 -16t-16 -40t16 -40t39 -16t39 16t16 40z" />
    <glyph glyph-name="ae" unicode="&#xe6;" horiz-adv-x="685" 
d="M646 264q0 -24 -1 -34h-275q9 -149 99 -149q32 0 52 8.5t43 30.5l59 -61q-63 -70 -156 -70q-90 0 -135 76q-66 -76 -158 -76q-61 0 -102 45.5t-41 130.5q0 83 47 127.5t124 44.5q44 0 80 -17v51q0 39 -15.5 57t-52.5 18q-48 0 -103 -33l-41 73q75 50 148 50
q55 0 81 -14.5t45 -47.5q41 62 117 62q82 0 133.5 -70t51.5 -202zM548 313q-2 60 -25.5 96.5t-63.5 36.5q-76 0 -88 -133h177zM282 125v105q-33 20 -79 20q-35 0 -55.5 -21t-20.5 -62q0 -91 66 -91q61 0 89 49z" />
    <glyph glyph-name="ccedilla" unicode="&#xe7;" horiz-adv-x="410" 
d="M375 82q-58 -91 -146 -93l-7 -37q15 9 42 9q28 0 46 -18t18 -53q0 -83 -107 -83q-52 0 -101 29l20 32q33 -17 73 -17q49 0 49 36q0 33 -26 33q-18 0 -37 -12l-32 13l15 72q-67 15 -105 82.5t-38 184.5q0 136 49 206t138 70q94 0 148 -92l-69 -60q-21 33 -39 46.5
t-43 13.5q-87 0 -87 -182q0 -181 90 -181q43 0 80 58z" />
    <glyph glyph-name="egrave" unicode="&#xe8;" horiz-adv-x="450" 
d="M411 264q0 -24 -1 -34h-275q9 -149 99 -149q32 0 52 8.5t43 30.5l59 -61q-63 -70 -156 -70q-92 0 -142.5 72.5t-50.5 198.5q0 134 50.5 205t136.5 71q82 0 133.5 -70t51.5 -202zM313 313q-2 60 -25.5 96.5t-63.5 36.5q-76 0 -88 -133h177zM275 595h-82l-145 160h135z" />
    <glyph glyph-name="eacute" unicode="&#xe9;" horiz-adv-x="450" 
d="M411 264q0 -24 -1 -34h-275q9 -149 99 -149q32 0 52 8.5t43 30.5l59 -61q-63 -70 -156 -70q-92 0 -142.5 72.5t-50.5 198.5q0 134 50.5 205t136.5 71q82 0 133.5 -70t51.5 -202zM313 313q-2 60 -25.5 96.5t-63.5 36.5q-76 0 -88 -133h177zM402 755l-145 -160h-82l92 160
h135z" />
    <glyph glyph-name="ecircumflex" unicode="&#xea;" horiz-adv-x="450" 
d="M411 264q0 -24 -1 -34h-275q9 -149 99 -149q32 0 52 8.5t43 30.5l59 -61q-63 -70 -156 -70q-92 0 -142.5 72.5t-50.5 198.5q0 134 50.5 205t136.5 71q82 0 133.5 -70t51.5 -202zM313 313q-2 60 -25.5 96.5t-63.5 36.5q-76 0 -88 -133h177zM379 585h-78l-77 88l-77 -88
h-76l102 160h104z" />
    <glyph glyph-name="edieresis" unicode="&#xeb;" horiz-adv-x="450" 
d="M411 264q0 -24 -1 -34h-275q9 -149 99 -149q32 0 52 8.5t43 30.5l59 -61q-63 -70 -156 -70q-92 0 -142.5 72.5t-50.5 198.5q0 134 50.5 205t136.5 71q82 0 133.5 -70t51.5 -202zM313 313q-2 60 -25.5 96.5t-63.5 36.5q-76 0 -88 -133h177zM376 652q0 -25 -18.5 -43.5
t-43.5 -18.5t-44 18.5t-19 43.5q0 26 18.5 44.5t44.5 18.5q25 0 43.5 -19t18.5 -44zM199 652q0 -25 -18.5 -43.5t-43.5 -18.5t-44 18.5t-19 43.5q0 26 19 44.5t44 18.5t43.5 -19t18.5 -44z" />
    <glyph glyph-name="igrave" unicode="&#xec;" horiz-adv-x="220" 
d="M158 0h-96v525h96v-525zM155 595h-82l-145 160h135z" />
    <glyph glyph-name="iacute" unicode="&#xed;" horiz-adv-x="220" 
d="M158 0h-96v525h96v-525zM292 755l-145 -160h-82l92 160h135z" />
    <glyph glyph-name="icircumflex" unicode="&#xee;" horiz-adv-x="220" 
d="M158 0h-96v525h96v-525zM264 580h-78l-77 88l-77 -88h-76l102 160h104z" />
    <glyph glyph-name="idieresis" unicode="&#xef;" horiz-adv-x="220" 
d="M158 0h-96v525h96v-525zM261 657q0 -25 -18.5 -43.5t-43.5 -18.5t-44 18.5t-19 43.5t19 44t44 19t43.5 -19t18.5 -44zM84 657q0 -25 -18.5 -43.5t-43.5 -18.5t-44 18.5t-19 43.5t18.5 44t44.5 19q25 0 43.5 -19t18.5 -44z" />
    <glyph glyph-name="eth" unicode="&#xf0;" horiz-adv-x="456" 
d="M417 291q0 -161 -45 -231.5t-147 -70.5q-85 0 -135.5 60.5t-50.5 180.5q0 119 48 183.5t129 64.5q66 0 105 -46q-10 75 -47 125l-39 -41l-56 49l39 41q-34 19 -76 23v82q80 -8 135 -43l41 43l56 -49l-42 -44q85 -103 85 -327zM320 232q0 152 -93 152q-46 0 -68.5 -36
t-22.5 -116q0 -151 92 -151t92 151z" />
    <glyph glyph-name="ntilde" unicode="&#xf1;" horiz-adv-x="446" 
d="M392 0h-96v323q0 66 -14.5 94t-50.5 28q-49 0 -78 -48v-397h-96v525h96v-36q37 47 102 47q74 0 105.5 -47.5t31.5 -149.5v-339zM391 716q0 -60 -26 -93t-68 -33q-43 0 -106 40q-22 12 -33 12q-30 0 -35 -47h-66q0 59 27 91.5t69 32.5q41 0 104 -40q22 -12 35 -12
q15 0 22.5 11.5t10.5 37.5h66z" />
    <glyph glyph-name="ograve" unicode="&#xf2;" horiz-adv-x="456" 
d="M417 264q0 -135 -51.5 -205t-140.5 -70q-85 0 -135.5 68.5t-50.5 202.5q0 135 50 205.5t140 70.5q86 0 137 -69.5t51 -202.5zM320 262q0 182 -93 182q-91 0 -91 -182q0 -181 92 -181q44 0 68 49t24 132zM276 595h-82l-145 160h135z" />
    <glyph glyph-name="oacute" unicode="&#xf3;" horiz-adv-x="456" 
d="M417 264q0 -135 -51.5 -205t-140.5 -70q-85 0 -135.5 68.5t-50.5 202.5q0 135 50 205.5t140 70.5q86 0 137 -69.5t51 -202.5zM320 262q0 182 -93 182q-91 0 -91 -182q0 -181 92 -181q44 0 68 49t24 132zM403 755l-145 -160h-82l92 160h135z" />
    <glyph glyph-name="ocircumflex" unicode="&#xf4;" horiz-adv-x="456" 
d="M417 264q0 -135 -51.5 -205t-140.5 -70q-85 0 -135.5 68.5t-50.5 202.5q0 135 50 205.5t140 70.5q86 0 137 -69.5t51 -202.5zM320 262q0 182 -93 182q-91 0 -91 -182q0 -181 92 -181q44 0 68 49t24 132zM380 585h-78l-77 88l-77 -88h-76l102 160h104z" />
    <glyph glyph-name="otilde" unicode="&#xf5;" horiz-adv-x="456" 
d="M417 264q0 -135 -51.5 -205t-140.5 -70q-85 0 -135.5 68.5t-50.5 202.5q0 135 50 205.5t140 70.5q86 0 137 -69.5t51 -202.5zM320 262q0 182 -93 182q-91 0 -91 -182q0 -181 92 -181q44 0 68 49t24 132zM396 716q0 -60 -26 -93t-68 -33q-43 0 -106 40q-22 12 -33 12
q-30 0 -35 -47h-66q0 59 27 91.5t69 32.5q41 0 104 -40q22 -12 35 -12q15 0 22.5 11.5t10.5 37.5h66z" />
    <glyph glyph-name="odieresis" unicode="&#xf6;" horiz-adv-x="456" 
d="M417 264q0 -135 -51.5 -205t-140.5 -70q-85 0 -135.5 68.5t-50.5 202.5q0 135 50 205.5t140 70.5q86 0 137 -69.5t51 -202.5zM320 262q0 182 -93 182q-91 0 -91 -182q0 -181 92 -181q44 0 68 49t24 132zM377 647q0 -25 -18.5 -43.5t-43.5 -18.5t-44 18.5t-19 43.5t19 44
t44 19t43.5 -19t18.5 -44zM200 647q0 -25 -18.5 -43.5t-43.5 -18.5t-44 18.5t-19 43.5t18.5 44t44.5 19q25 0 43.5 -19t18.5 -44z" />
    <glyph glyph-name="divide" unicode="&#xf7;" 
d="M730 346l-179 -125q-9 -5 -16 -2q-10 9 -6 20l19 61h-127v-137l63 20q10 4 18 -6q4 -8 -3 -17l-124 -178l-126 178q-5 10 -2 17q9 11 20 6l62 -20v137h-127l19 -61q4 -10 -7 -20q-6 -3 -17 2l-177 125l179 125q8 7 15 3q11 -9 7 -19l-19 -63h127v134l-62 -19
q-10 -5 -20 7q-3 6 2 17l126 177l124 -178q6 -9 3 -16q-9 -10 -18 -7l-63 19v-134h127l-19 63q-4 10 6 19q8 4 16 -3z" />
    <glyph glyph-name="oslash" unicode="&#xf8;" horiz-adv-x="456" 
d="M417 264q0 -135 -51.5 -205t-140.5 -70q-28 0 -55 8l-17 -47h-82l33 89q-65 71 -65 221q0 135 50 205.5t140 70.5q28 0 55 -8l17 47h82l-33 -89q67 -70 67 -222zM253 444q-11 4 -26 4q-95 0 -95 -186q0 -70 13 -112zM324 262q0 70 -14 114l-109 -295q12 -4 27 -4
q45 0 70.5 50.5t25.5 134.5z" />
    <glyph glyph-name="ugrave" unicode="&#xf9;" horiz-adv-x="446" 
d="M389 0h-96v36q-37 -47 -102 -47q-74 0 -105.5 47.5t-31.5 149.5v339h96v-323q0 -66 14.5 -94t50.5 -28q49 0 78 48v397h96v-525zM269 595h-82l-145 160h135z" />
    <glyph glyph-name="uacute" unicode="&#xfa;" horiz-adv-x="446" 
d="M389 0h-96v36q-37 -47 -102 -47q-74 0 -105.5 47.5t-31.5 149.5v339h96v-323q0 -66 14.5 -94t50.5 -28q49 0 78 48v397h96v-525zM396 755l-145 -160h-82l92 160h135z" />
    <glyph glyph-name="ucircumflex" unicode="&#xfb;" horiz-adv-x="446" 
d="M389 0h-96v36q-37 -47 -102 -47q-74 0 -105.5 47.5t-31.5 149.5v339h96v-323q0 -66 14.5 -94t50.5 -28q49 0 78 48v397h96v-525zM373 595h-78l-77 88l-77 -88h-76l102 160h104z" />
    <glyph glyph-name="udieresis" unicode="&#xfc;" horiz-adv-x="446" 
d="M389 0h-96v36q-37 -47 -102 -47q-74 0 -105.5 47.5t-31.5 149.5v339h96v-323q0 -66 14.5 -94t50.5 -28q49 0 78 48v397h96v-525zM370 657q0 -25 -18.5 -43.5t-43.5 -18.5t-44 18.5t-19 43.5t18.5 44t44.5 19q25 0 43.5 -19t18.5 -44zM193 657q0 -25 -18.5 -43.5
t-43.5 -18.5t-44 18.5t-19 43.5t19 44t44 19t43.5 -19t18.5 -44z" />
    <glyph glyph-name="yacute" unicode="&#xfd;" horiz-adv-x="434" 
d="M412 525l-207 -710h-94l57 185l-146 525h102l61 -249q17 -70 31 -143q11 62 32 144l62 248h102zM391 745l-145 -160h-82l92 160h135z" />
    <glyph glyph-name="thorn" unicode="&#xfe;" horiz-adv-x="448" 
d="M409 257q0 -130 -43 -199t-122 -69q-53 0 -91 39v-171l-96 -50v872l96 50v-239q43 46 98 46q76 0 117 -65t41 -214zM312 252q0 102 -19.5 148t-61.5 46q-49 0 -78 -48v-272q31 -47 83 -47q76 0 76 173z" />
    <glyph glyph-name="ydieresis" unicode="&#xff;" horiz-adv-x="434" 
d="M412 525l-207 -710h-94l57 185l-146 525h102l61 -249q17 -70 31 -143q11 62 32 144l62 248h102zM365 647q0 -25 -18.5 -43.5t-43.5 -18.5t-44 18.5t-19 43.5t19 44t44 19t43.5 -19t18.5 -44zM188 647q0 -25 -18.5 -43.5t-43.5 -18.5t-44 18.5t-19 43.5t18.5 44t44.5 19
q25 0 43.5 -19t18.5 -44z" />
    <glyph glyph-name="dotlessi" unicode="&#x131;" horiz-adv-x="220" 
d="M158 0h-96v525h96v-525z" />
    <glyph glyph-name="Lslash" unicode="&#x141;" horiz-adv-x="428" 
d="M402 0h-322v227l-40 -33v105l40 33v368h96v-300l103 82v-105l-103 -82v-199h226v-96z" />
    <glyph glyph-name="lslash" unicode="&#x142;" horiz-adv-x="248" 
d="M214 340l-43 -35v-305h-94v237l-43 -34v105l43 34v337l94 50v-319l43 35v-105z" />
    <glyph glyph-name="OE" unicode="&#x152;" horiz-adv-x="735" 
d="M702 0h-322v63q-48 -74 -125 -74q-106 0 -158 99t-52 261t52.5 262t158.5 100q90 0 124 -78v67h309v-95h-231v-187h151v-94h-151v-229h244v-95zM368 349q0 70 -10 127t-37 97t-67 40q-31 0 -53 -22t-33.5 -61t-17 -83t-5.5 -96t6 -97t18.5 -83.5t35 -61t53.5 -22.5
q40 0 66 40t35 95.5t9 126.5z" />
    <glyph glyph-name="oe" unicode="&#x153;" horiz-adv-x="725" 
d="M686 264q0 -24 -1 -34h-275q9 -149 99 -149q32 0 52 8.5t43 30.5l59 -61q-63 -70 -156 -70q-100 0 -141 85q-20 -39 -56.5 -62t-84.5 -23q-85 0 -135.5 68.5t-50.5 202.5q0 135 50 205.5t140 70.5q95 0 136 -84q45 84 136 84q82 0 133.5 -70t51.5 -202zM588 313
q-2 60 -25.5 96.5t-63.5 36.5q-76 0 -88 -133h177zM320 262q0 182 -93 182q-91 0 -91 -182q0 -181 92 -181q44 0 68 49t24 132z" />
    <glyph glyph-name="Scaron" unicode="&#x160;" horiz-adv-x="443" 
d="M403 181q0 -86 -50 -139t-141 -53q-118 0 -185 114l77 62q28 -43 54 -60.5t60 -17.5q40 0 62 23t22 66q0 41 -23.5 71t-93.5 76q-71 47 -106 92.5t-35 120.5q0 78 48 126.5t129 48.5q58 0 97.5 -23.5t72.5 -71.5l-72 -64q-26 35 -47.5 48t-53.5 13q-35 0 -54 -20t-19 -54
q0 -39 21.5 -66t80.5 -65q79 -51 117.5 -99t38.5 -128zM368 910l-102 -160h-104l-102 160h78l77 -88l77 88h76z" />
    <glyph glyph-name="scaron" unicode="&#x161;" horiz-adv-x="389" 
d="M351 144q0 -74 -43 -114.5t-120 -40.5q-85 0 -161 56l37 80q72 -45 122 -45q32 0 50.5 15.5t18.5 41.5t-20.5 45t-80.5 53q-57 33 -83 65.5t-26 89.5q0 69 39.5 107.5t110.5 38.5q79 0 143 -49l-39 -81q-55 39 -106 39q-26 0 -39 -12.5t-13 -33.5q0 -24 16.5 -41
t69.5 -48q67 -39 95.5 -72.5t28.5 -93.5zM342 755l-102 -160h-104l-102 160h78l77 -88l77 88h76z" />
    <glyph glyph-name="Ydieresis" unicode="&#x178;" horiz-adv-x="493" 
d="M471 700l-173 -387v-313h-98v310l-178 390h111l62 -146q39 -91 55 -146q15 53 54 147l60 145h107zM398 802q0 -25 -18.5 -43.5t-43.5 -18.5t-44 18.5t-19 43.5q0 26 18.5 44.5t44.5 18.5q25 0 43.5 -19t18.5 -44zM221 802q0 -25 -18.5 -43.5t-43.5 -18.5t-44 18.5
t-19 43.5q0 26 19 44.5t44 18.5t43.5 -19t18.5 -44z" />
    <glyph glyph-name="Zcaron" unicode="&#x17d;" horiz-adv-x="460" 
d="M413 0h-372v91l200 394q45 86 68 126q-42 -2 -101 -2h-141v91h340v-91l-201 -395q-33 -64 -68 -125q42 2 101 2h174v-91zM386 905l-102 -160h-104l-102 160h78l77 -88l77 88h76z" />
    <glyph glyph-name="zcaron" unicode="&#x17e;" horiz-adv-x="407" 
d="M361 0h-325v82l175 281q39 62 49 74q-19 -1 -93 -1h-114v89h308v-81l-170 -282q-39 -62 -49 -74q19 1 93 1h126v-89zM356 755l-102 -160h-104l-102 160h78l77 -88l77 88h76z" />
    <glyph glyph-name="florin" unicode="&#x192;" horiz-adv-x="340" 
d="M309 619q-24 6 -56 6q-30 0 -42.5 -13t-12.5 -43v-44h96v-88h-96v-578l-96 -52v630h-53v88h53v59q0 68 31.5 97.5t91.5 29.5q44 0 84 -10v-82z" />
    <glyph glyph-name="circumflex" unicode="&#x2c6;" horiz-adv-x="400" 
d="M354 595h-78l-77 88l-77 -88h-76l102 160h104z" />
    <glyph glyph-name="caron" unicode="&#x2c7;" horiz-adv-x="400" 
d="M354 755l-102 -160h-104l-102 160h78l77 -88l77 88h76z" />
    <glyph glyph-name="breve" unicode="&#x2d8;" horiz-adv-x="400" 
d="M355 755q-10 -75 -49 -117.5t-106 -42.5q-66 0 -105.5 42t-47.5 118h69q9 -41 28.5 -60.5t57.5 -19.5q36 0 55.5 19.5t28.5 60.5h69z" />
    <glyph glyph-name="dotaccent" unicode="&#x2d9;" horiz-adv-x="400" 
d="M264 659q0 -25 -19 -44.5t-45 -19.5t-45.5 19t-19.5 45t19.5 45.5t45.5 19.5t45 -19.5t19 -45.5z" />
    <glyph glyph-name="ring" unicode="&#x2da;" horiz-adv-x="400" 
d="M313 707q0 -49 -32 -80.5t-81 -31.5t-81 31.5t-32 80.5t32 81t81 32t81 -32t32 -81zM255 707q0 24 -16 40t-39 16t-39 -16t-16 -40t16 -40t39 -16t39 16t16 40z" />
    <glyph glyph-name="ogonek" unicode="&#x2db;" horiz-adv-x="400" 
d="M306 -150q-60 -43 -111 -43q-92 0 -92 78q0 63 86 115h50q-59 -59 -59 -100t38 -41q26 0 66 24z" />
    <glyph glyph-name="tilde" unicode="&#x2dc;" horiz-adv-x="400" 
d="M370 716q0 -60 -26 -93t-68 -33q-43 0 -106 40q-22 12 -33 12q-30 0 -35 -47h-66q0 59 27 91.5t69 32.5q41 0 104 -40q22 -12 35 -12q15 0 22.5 11.5t10.5 37.5h66z" />
    <glyph glyph-name="hungarumlaut" unicode="&#x2dd;" horiz-adv-x="400" 
d="M424 755l-145 -160h-82l97 160h130zM234 755l-145 -160h-82l97 160h130z" />
    <glyph glyph-name="Delta" unicode="&#x394;" horiz-adv-x="550" 
d="M505 298h-297l18 -57q5 -13 -8 -23q-8 -4 -19 2l-179 126l179 125q11 7 19 3q12 -9 8 -22l-18 -58h297v-96z" />
    <glyph glyph-name="Delta" unicode="&#x2206;" horiz-adv-x="550" 
d="M505 298h-297l18 -57q5 -13 -8 -23q-8 -4 -19 2l-179 126l179 125q11 7 19 3q12 -9 8 -22l-18 -58h297v-96z" />
    <glyph glyph-name="Omega" unicode="&#x3a9;" horiz-adv-x="356" 
d="M306 515q-9 -12 -22 -8l-58 18v-525h-96v525l-57 -18q-13 -5 -23 8q-4 7 2 19l126 179l125 -179q7 -11 3 -19z" />
    <glyph glyph-name="Omega" unicode="&#x2126;" horiz-adv-x="356" 
d="M306 515q-9 -12 -22 -8l-58 18v-525h-96v525l-57 -18q-13 -5 -23 8q-4 7 2 19l126 179l125 -179q7 -11 3 -19z" />
    <glyph glyph-name="pi" unicode="&#x3c0;" horiz-adv-x="646" 
d="M601 350q0 -163 -78 -262t-200 -99t-200 99t-78 262t78 262t200 99t200 -99t78 -262zM543 349q0 139 -59.5 223t-160.5 84t-160.5 -83.5t-59.5 -221.5t60.5 -222.5t161.5 -84.5t159.5 83.5t58.5 221.5zM452 432q0 -57 -33.5 -88.5t-81.5 -31.5h-50v-159h-58v394h111
q45 0 78.5 -29t33.5 -86zM392 430q0 31 -16 46t-39 15h-50v-123h50q24 0 39.5 16t15.5 46z" />
    <glyph glyph-name="endash" unicode="&#x2013;" horiz-adv-x="400" 
d="M360 319h-320v94h320v-94z" />
    <glyph glyph-name="emdash" unicode="&#x2014;" horiz-adv-x="550" 
d="M510 319h-470v94h470v-94z" />
    <glyph glyph-name="quoteleft" unicode="&#x2018;" horiz-adv-x="242" 
d="M180 700l-13 -239h-119l67 239h65z" />
    <glyph glyph-name="quoteright" unicode="&#x2019;" horiz-adv-x="242" 
d="M194 700l-67 -239h-65l13 239h119z" />
    <glyph glyph-name="quotesinglbase" unicode="&#x201a;" horiz-adv-x="242" 
d="M194 126l-67 -239h-65l13 239h119z" />
    <glyph glyph-name="quotedblleft" unicode="&#x201c;" horiz-adv-x="457" 
d="M395 700l-13 -239h-119l67 239h65zM180 700l-13 -239h-119l67 239h65z" />
    <glyph glyph-name="quotedblright" unicode="&#x201d;" horiz-adv-x="457" 
d="M409 700l-67 -239h-65l13 239h119zM194 700l-67 -239h-65l13 239h119z" />
    <glyph glyph-name="quotedblbase" unicode="&#x201e;" horiz-adv-x="457" 
d="M409 126l-67 -239h-65l13 239h119zM194 126l-67 -239h-65l13 239h119z" />
    <glyph glyph-name="dagger" unicode="&#x2020;" horiz-adv-x="442" 
d="M410 384h-141v-484h-96v484h-141v90h141v226h96v-226h141v-90z" />
    <glyph glyph-name="daggerdbl" unicode="&#x2021;" horiz-adv-x="442" 
d="M410 127h-141v-227h-96v227h-141v90h141v167h-141v90h141v226h96v-226h141v-90h-141v-167h141v-90z" />
    <glyph glyph-name="bullet" unicode="&#x2022;" horiz-adv-x="400" 
d="M350 366q0 -63 -43.5 -106.5t-106.5 -43.5t-106.5 43.5t-43.5 106.5t43.5 107.5t106.5 44.5t106.5 -44.5t43.5 -107.5z" />
    <glyph glyph-name="ellipsis" unicode="&#x2026;" horiz-adv-x="696" 
d="M651 60q0 -30 -20.5 -50.5t-50.5 -20.5t-50.5 20.5t-20.5 50.5t20.5 51t50.5 21t50.5 -21t20.5 -51zM419 60q0 -30 -20.5 -50.5t-50.5 -20.5t-50.5 20.5t-20.5 50.5t20.5 51t50.5 21t50.5 -21t20.5 -51zM187 60q0 -30 -20.5 -50.5t-50.5 -20.5t-50.5 20.5t-20.5 50.5
t20.5 51t50.5 21t50.5 -21t20.5 -51z" />
    <glyph glyph-name="perthousand" unicode="&#x2030;" horiz-adv-x="1203" 
d="M347 494q0 -99 -38 -158.5t-112 -59.5t-110.5 58t-36.5 158q0 101 37 160t112 59q76 0 112 -58t36 -159zM653 700l-369 -700h-88l369 700h88zM1160 207q0 -99 -38 -158.5t-112 -59.5t-110.5 58t-36.5 158q0 101 37 160t112 59q76 0 112 -58t36 -159zM805 207
q0 -99 -38 -158.5t-112 -59.5t-110.5 58t-36.5 158q0 101 37 160t112 59q76 0 112 -58t36 -159zM265 492q0 141 -67 141q-65 0 -65 -139q0 -142 66 -142q33 0 49.5 39t16.5 101zM1078 205q0 141 -67 141q-65 0 -65 -139q0 -142 66 -142q33 0 49.5 39t16.5 101zM723 205
q0 141 -67 141q-65 0 -65 -139q0 -142 66 -142q33 0 49.5 39t16.5 101z" />
    <glyph glyph-name="guilsinglleft" unicode="&#x2039;" horiz-adv-x="298" 
d="M253 0h-98l-135 262l135 263h98l-130 -262z" />
    <glyph glyph-name="guilsinglright" unicode="&#x203a;" horiz-adv-x="298" 
d="M278 263l-135 -263h-98l130 262l-130 263h98z" />
    <glyph glyph-name="fraction" unicode="&#x2044;" horiz-adv-x="389" 
d="M441 700l-389 -700h-104l389 700h104z" />
    <glyph glyph-name="fraction" unicode="&#x2215;" horiz-adv-x="389" 
d="M441 700l-389 -700h-104l389 700h104z" />
    <glyph glyph-name="Euro" unicode="&#x20ac;" horiz-adv-x="465" 
d="M139 390q-1 -13 -1 -39q0 -25 1 -37h176v-77h-168q26 -154 104 -154q38 0 59 27t34 85l91 -29q-22 -88 -65.5 -132.5t-125.5 -44.5q-103 0 -152 99t-49 261q0 161 51.5 261.5t152.5 100.5q83 0 126.5 -44.5t60.5 -126.5l-94 -26q-16 57 -35.5 80t-58.5 23q-75 0 -99 -150
h168v-77h-176z" />
    <glyph glyph-name="trademark" unicode="&#x2122;" horiz-adv-x="575" 
d="M220 643h-71v-336h-57v336h-73v57h201v-57zM539 307h-56v159q0 11 0.5 44.5t0.5 44.5q-10 -37 -28 -93l-51 -164l-51 164q-4 12 -14 44.5t-13 44.5q0 -12 0.5 -43.5t0.5 -41.5v-159h-55v393h59l51 -164q21 -62 24 -82q3 16 22 84l51 162h59v-393z" />
    <glyph glyph-name="partialdiff" unicode="&#x2202;" horiz-adv-x="356" 
d="M306 185q4 -8 -3 -19l-125 -179l-126 179q-6 12 -2 19q10 13 23 8l57 -18v350l-57 -18q-13 -5 -23 8q-4 7 2 19l126 179l125 -179q7 -11 3 -19q-9 -12 -22 -8l-58 18v-350l58 18q13 4 22 -8z" />
    <glyph glyph-name="product" unicode="&#x220f;" 
d="M730 346l-179 -125q-9 -5 -16 -2q-10 9 -6 20l19 61h-127v-137l63 20q10 4 18 -6q4 -8 -3 -17l-124 -178l-126 178q-5 10 -2 17q9 11 20 6l62 -20v137h-127l19 -61q4 -10 -7 -20q-6 -3 -17 2l-177 125l179 125q8 7 15 3q11 -9 7 -19l-19 -63h127v134l-62 -19
q-10 -5 -20 7q-3 6 2 17l126 177l124 -178q6 -9 3 -16q-9 -10 -18 -7l-63 19v-134h127l-19 63q-4 10 6 19q8 4 16 -3z" />
    <glyph glyph-name="summation" unicode="&#x2211;" 
d="M730 346l-179 -125q-9 -5 -16 -2q-10 9 -6 20l19 61h-127v-137l63 20q10 4 18 -6q4 -8 -3 -17l-124 -178l-126 178q-5 10 -2 17q9 11 20 6l62 -20v137h-127l19 -61q4 -10 -7 -20q-6 -3 -17 2l-177 125l179 125q8 7 15 3q11 -9 7 -19l-19 -63h127v134l-62 -19
q-10 -5 -20 7q-3 6 2 17l126 177l124 -178q6 -9 3 -16q-9 -10 -18 -7l-63 19v-134h127l-19 63q-4 10 6 19q8 4 16 -3z" />
    <glyph glyph-name="minus" unicode="&#x2212;" 
d="M730 346l-179 -125q-9 -5 -16 -2q-10 9 -6 20l19 61h-127v-137l63 20q10 4 18 -6q4 -8 -3 -17l-124 -178l-126 178q-5 10 -2 17q9 11 20 6l62 -20v137h-127l19 -61q4 -10 -7 -20q-6 -3 -17 2l-177 125l179 125q8 7 15 3q11 -9 7 -19l-19 -63h127v134l-62 -19
q-10 -5 -20 7q-3 6 2 17l126 177l124 -178q6 -9 3 -16q-9 -10 -18 -7l-63 19v-134h127l-19 63q-4 10 6 19q8 4 16 -3z" />
    <glyph glyph-name="radical" unicode="&#x221a;" horiz-adv-x="490" 
d="M475 700l-231 -700h-99l-123 340h107l29 -98q21 -71 36 -136q12 48 40 140l138 454h103z" />
    <glyph glyph-name="infinity" unicode="&#x221e;" 
d="M730 346l-179 -125q-9 -5 -16 -2q-10 9 -6 20l19 61h-127v-137l63 20q10 4 18 -6q4 -8 -3 -17l-124 -178l-126 178q-5 10 -2 17q9 11 20 6l62 -20v137h-127l19 -61q4 -10 -7 -20q-6 -3 -17 2l-177 125l179 125q8 7 15 3q11 -9 7 -19l-19 -63h127v134l-62 -19
q-10 -5 -20 7q-3 6 2 17l126 177l124 -178q6 -9 3 -16q-9 -10 -18 -7l-63 19v-134h127l-19 63q-4 10 6 19q8 4 16 -3z" />
    <glyph glyph-name="integral" unicode="&#x222b;" horiz-adv-x="448" 
d="M391 0h-96v35q-43 -46 -98 -46q-76 0 -117 65t-41 214q0 130 43 199t122 69q53 0 91 -39v28h96v-525zM295 127v272q-31 47 -83 47q-76 0 -76 -173q0 -102 19.5 -148t61.5 -46q49 0 78 48z" />
    <glyph glyph-name="approxequal" unicode="&#x2248;" horiz-adv-x="356" 
d="M306 185q4 -8 -3 -19l-125 -179l-126 179q-6 12 -2 19q10 13 23 8l57 -18v525h96v-525l58 18q13 4 22 -8z" />
    <glyph glyph-name="notequal" unicode="&#x2260;" 
d="M730 346l-179 -125q-9 -5 -16 -2q-10 9 -6 20l19 61h-127v-137l63 20q10 4 18 -6q4 -8 -3 -17l-124 -178l-126 178q-5 10 -2 17q9 11 20 6l62 -20v137h-127l19 -61q4 -10 -7 -20q-6 -3 -17 2l-177 125l179 125q8 7 15 3q11 -9 7 -19l-19 -63h127v134l-62 -19
q-10 -5 -20 7q-3 6 2 17l126 177l124 -178q6 -9 3 -16q-9 -10 -18 -7l-63 19v-134h127l-19 63q-4 10 6 19q8 4 16 -3z" />
    <glyph glyph-name="lessequal" unicode="&#x2264;" 
d="M730 346l-179 -125q-9 -5 -16 -2q-10 9 -6 20l19 61h-127v-137l63 20q10 4 18 -6q4 -8 -3 -17l-124 -178l-126 178q-5 10 -2 17q9 11 20 6l62 -20v137h-127l19 -61q4 -10 -7 -20q-6 -3 -17 2l-177 125l179 125q8 7 15 3q11 -9 7 -19l-19 -63h127v134l-62 -19
q-10 -5 -20 7q-3 6 2 17l126 177l124 -178q6 -9 3 -16q-9 -10 -18 -7l-63 19v-134h127l-19 63q-4 10 6 19q8 4 16 -3z" />
    <glyph glyph-name="greaterequal" unicode="&#x2265;" 
d="M730 346l-179 -125q-9 -5 -16 -2q-10 9 -6 20l19 61h-127v-137l63 20q10 4 18 -6q4 -8 -3 -17l-124 -178l-126 178q-5 10 -2 17q9 11 20 6l62 -20v137h-127l19 -61q4 -10 -7 -20q-6 -3 -17 2l-177 125l179 125q8 7 15 3q11 -9 7 -19l-19 -63h127v134l-62 -19
q-10 -5 -20 7q-3 6 2 17l126 177l124 -178q6 -9 3 -16q-9 -10 -18 -7l-63 19v-134h127l-19 63q-4 10 6 19q8 4 16 -3z" />
    <glyph glyph-name="lozenge" unicode="&#x25ca;" 
d="M730 346l-179 -125q-9 -5 -16 -2q-10 9 -6 20l19 61h-127v-137l63 20q10 4 18 -6q4 -8 -3 -17l-124 -178l-126 178q-5 10 -2 17q9 11 20 6l62 -20v137h-127l19 -61q4 -10 -7 -20q-6 -3 -17 2l-177 125l179 125q8 7 15 3q11 -9 7 -19l-19 -63h127v134l-62 -19
q-10 -5 -20 7q-3 6 2 17l126 177l124 -178q6 -9 3 -16q-9 -10 -18 -7l-63 19v-134h127l-19 63q-4 10 6 19q8 4 16 -3z" />
    <glyph glyph-name="apple" unicode="&#xf8ff;" 
d="M730 346l-179 -125q-9 -5 -16 -2q-10 9 -6 20l19 61h-127v-137l63 20q10 4 18 -6q4 -8 -3 -17l-124 -178l-126 178q-5 10 -2 17q9 11 20 6l62 -20v137h-127l19 -61q4 -10 -7 -20q-6 -3 -17 2l-177 125l179 125q8 7 15 3q11 -9 7 -19l-19 -63h127v134l-62 -19
q-10 -5 -20 7q-3 6 2 17l126 177l124 -178q6 -9 3 -16q-9 -10 -18 -7l-63 19v-134h127l-19 63q-4 10 6 19q8 4 16 -3z" />
    <glyph glyph-name="NUL" horiz-adv-x="0" 
 />
    </font>
</defs>
</svg>
